<?xml version="1.0" encoding="utf-8"?>
<!-- Generator: Adobe Illustrator 26.0.3, SVG Export Plug-In . SVG Version: 6.00 Build 0)  -->
<svg version="1.1" id="Layer_1" xmlns="http://www.w3.org/2000/svg" xmlns:xlink="http://www.w3.org/1999/xlink" x="0px" y="0px"
	 viewBox="0 0 294.5 292.8" style="enable-background:new 0 0 294.5 292.8;" xml:space="preserve">
<style type="text/css">
	.st0{fill:#F8EFEF;}
	.st1{clip-path:url(#SVGID_00000155112193328224664170000010209013242942660798_);}
	.st2{clip-path:url(#SVGID_00000127023724164516583510000001523898392005020562_);}
	.st3{clip-path:url(#SVGID_00000031203782821885022720000000461575423782663855_);}
	.st4{clip-path:url(#SVGID_00000151508437200221350120000015374864412727570049_);}
	.st5{fill-rule:evenodd;clip-rule:evenodd;}
	.st6{clip-path:url(#SVGID_00000150784469355953939140000017561810172411484831_);}
	.st7{clip-path:url(#SVGID_00000091728807788109758130000004491424366056732562_);}
	.st8{clip-path:url(#SVGID_00000128453186131773837750000004139999079261290116_);}
	.st9{clip-path:url(#SVGID_00000183955419709852311250000013407012089853770136_);}
	.st10{clip-path:url(#SVGID_00000076575912304420139160000009011413558064786345_);}
	.st11{clip-path:url(#SVGID_00000012441717764503073110000013977703421994813879_);}
	.st12{clip-path:url(#SVGID_00000148621286538906331000000008064960999075065732_);}
	.st13{clip-path:url(#SVGID_00000180327437018323244100000013547705827311853999_);}
	.st14{clip-path:url(#SVGID_00000092415437276383517970000017912955185433611711_);}
	.st15{clip-path:url(#SVGID_00000122705263361230512580000001176871283655281077_);}
	.st16{clip-path:url(#SVGID_00000124849186150954043950000001675128258320198283_);}
	.st17{clip-path:url(#SVGID_00000065054587889526003680000007963171886950147226_);}
	.st18{clip-path:url(#SVGID_00000153688614350385994290000009586136553203339179_);}
	.st19{clip-path:url(#SVGID_00000043439713225344186430000017306524733783952303_);}
	.st20{clip-path:url(#SVGID_00000134248542136276519280000009135186348353700502_);}
	.st21{clip-path:url(#SVGID_00000077314903136944892170000002422862452917809064_);}
	.st22{clip-path:url(#SVGID_00000047026193362299432120000006890910272562083987_);}
	.st23{clip-path:url(#SVGID_00000175301546844097691530000003416239946834087867_);}
	.st24{clip-path:url(#SVGID_00000078004551829518504900000018300029368049558445_);}
	.st25{clip-path:url(#SVGID_00000140705629291116517650000005670985188260144040_);}
	.st26{clip-path:url(#SVGID_00000114785794398452073900000009438195005841870244_);}
	.st27{clip-path:url(#SVGID_00000170975990928303594880000016066808959624712107_);}
	.st28{clip-path:url(#SVGID_00000002378104767159249140000003347448830371670434_);}
	.st29{clip-path:url(#SVGID_00000072984090806065585200000012820716062578338202_);}
	.st30{clip-path:url(#SVGID_00000106120222105082998760000013647116062689913989_);}
	.st31{clip-path:url(#SVGID_00000111913393079220685870000012548920519100903054_);}
	.st32{clip-path:url(#SVGID_00000011745809461531731970000018346221460897138866_);}
	.st33{clip-path:url(#SVGID_00000160900737993017548370000014747403042230913974_);}
	.st34{clip-path:url(#SVGID_00000178167708084439376360000012460860906133067648_);}
	.st35{clip-path:url(#SVGID_00000183225651243181010880000011077983949735741840_);}
	.st36{clip-path:url(#SVGID_00000013877021650402380400000003710196473422926252_);}
	.st37{clip-path:url(#SVGID_00000075874129073237763610000014032749825446879907_);}
</style>
<path class="st0" d="M179.4,0C115.8,0,64.2,51.5,64.2,115.1s51.5,115.1,115.1,115.1s115.1-51.5,115.1-115.1S242.9,0,179.4,0"/>
<g>
	<defs>
		<rect id="SVGID_1_" y="96.8" width="195" height="196"/>
	</defs>
	<clipPath id="SVGID_00000086649740632086724940000007781248184977628334_">
		<use xlink:href="#SVGID_1_"  style="overflow:visible;"/>
	</clipPath>
	<g style="clip-path:url(#SVGID_00000086649740632086724940000007781248184977628334_);">
		<g>
			<defs>
				
					<rect id="SVGID_00000177474927581359714190000010081364688686524307_" x="20.5" y="124.7" transform="matrix(0.5467 -0.8373 0.8373 0.5467 -123.5985 170.3056)" width="150" height="149.2"/>
			</defs>
			<clipPath id="SVGID_00000172409904307962953830000012533227251645197995_">
				<use xlink:href="#SVGID_00000177474927581359714190000010081364688686524307_"  style="overflow:visible;"/>
			</clipPath>
			<g style="clip-path:url(#SVGID_00000172409904307962953830000012533227251645197995_);">
				<g>
					<defs>
						
							<rect id="SVGID_00000103975308167423894280000003926839242560557233_" x="20.5" y="124.7" transform="matrix(0.5467 -0.8373 0.8373 0.5467 -123.5985 170.3056)" width="150" height="149.2"/>
					</defs>
					<clipPath id="SVGID_00000067955929974354975390000013715990495279941565_">
						<use xlink:href="#SVGID_00000103975308167423894280000003926839242560557233_"  style="overflow:visible;"/>
					</clipPath>
					<g style="clip-path:url(#SVGID_00000067955929974354975390000013715990495279941565_);">
						<g>
							<defs>
								
									<rect id="SVGID_00000169516544776705922240000008898930963707424916_" x="20.5" y="124.7" transform="matrix(0.5467 -0.8373 0.8373 0.5467 -123.5985 170.3056)" width="150" height="149.2"/>
							</defs>
							<clipPath id="SVGID_00000158723896333746882880000007123999671117623469_">
								<use xlink:href="#SVGID_00000169516544776705922240000008898930963707424916_"  style="overflow:visible;"/>
							</clipPath>
							<g style="clip-path:url(#SVGID_00000158723896333746882880000007123999671117623469_);">
								<path class="st5" d="M102.2,181.7c0.6,0.2,1.3,0.4,1.9,0.6c0.7,0.2,1.4,0.5,2.1,0.8c0.3,0.1,0.6,0.6,0.5,0.8
									c-0.4,0.9-0.9,1.7-1.2,2.7c1.1-0.6,2.2-1.1,3.3-1.7c1.9-1,3.7-2,5.6-2.9c2.9-1.3,5.8-2.5,8.7-3.5c3.8-1.4,7.6-2.7,11.4-3.8
									c2.3-0.7,4.6-1,7-1.4c3.2-0.5,6.5-1,9.7-1.4c2-0.3,4-0.4,6.1-0.4c2.1-0.1,4.1,0,6.2,0.1c0.1,0,0.2,0.1,0.3,0
									c2.4-0.7,4.7,0.4,7,0.6c2.5,0.3,5,0.7,7.5,1.2c1.6,0.3,3.2,0.9,4.8,1.5c3.3,1.1,6.4,2.6,9,4.8c0.9,0.7,1.6,1.7,2.3,2.7
									c0.6,0.8-0.2,2.4-1.1,3.1c-0.6,0.5-1.2,1.1-1.6,1.8c-0.7,1.2-1.3,2.3-2.6,2.9c-0.4,0.2-0.8,0.6-1,1.1
									c-1.1,1.9-2.8,2.9-4.5,4.1c-1.1,0.8-2,1.9-3,2.8c-0.5,0.5-1,0.9-1.6,1.3c-1.4,0.9-2.7,1.8-3.2,3.4c-0.1,0.2-0.3,0.5-0.5,0.6
									c-2.3,1.2-3.7,3.2-5.2,5.2c-0.6,0.9-1.5,1.6-2.4,2.2c-1.7,1-2.8,2.4-4,3.9c-0.5,0.6-1.1,1.1-1.7,1.4c-1.4,0.7-2.6,1.7-3.3,3
									c-0.6,1.1-1.6,1.8-2.8,2.2c-1.9,0.6-3.9,1.1-5.7,1.9c-2.5,1.1-4.8,0.7-7.1-0.4c-2.4-1.2-4.8-2.6-7.1-4
									c-1.4-0.9-2.6-2.1-4-3.1c-1.1-0.8-2.1-1.6-3.2-2.4c-0.1-0.1-0.3-0.1-0.7,0.1c0.7,1.3,1.5,2.5,2.1,3.8
									c1.1,2.3,2.1,4.6,3.2,6.9c0.5,1.2,1,2.5,1.4,3.8c0.8,2.9,0.7,5.6-1.1,8.3c-0.9,1.4-1,3.3-1.4,5.1c-0.4,1.7-0.7,3.3-1.1,5
									c-0.3,1.2-1.4,1.8-2.5,2c-2.3,0.5-2.7,2.4-3.3,4.2c-0.4,1.4-0.8,2.8-1.3,4.2c-0.6,1.4-1.7,2.2-3.2,2.1
									c-2.4-0.1-3.8,1.2-4.8,3.2c-1,2.1-3.3,3.2-5.7,3.1c-0.9-0.1-2.2,0.4-2.8,1c-1.6,1.9-2.4,4.3-2.8,6.8
									c-0.6,3.2-0.4,6.4-0.2,9.5c0.1,2,0.4,3.9,0.4,5.9c0,1,0.2,2.3-0.9,3.2c-1.4,1.2-3.1,0.9-4.2-0.6c-1.6-2.2-1.3-4.7-1-7.2
									c0.2-1.7,0.7-3.4,0.7-5.1c0-1.9-0.2-3.8-0.6-5.7c-0.2-0.9-0.7-1.8-1.3-2.5c-1.1-1.2-2.9-1.2-4.4-0.1
									c-0.8,0.6-1.6,1.1-2.5,1.6c-0.9,0.5-1.5,0.1-1.7-0.9c-0.3-1.8-0.6-3.7-0.9-5.5c-0.2-1.5-0.5-1.7-2-1.5c-2,0.3-5.1-1.2-5-3.9
									c0-1.9,0-3.8,0.2-5.7c0.1-0.8,0.8-1.6,1.2-2.4c0.6-1.1,0-3.4-1.1-4.2c-0.2-0.2-0.4-0.6-0.4-0.9c0-1,0.2-2,0.3-2.9
									c0.2-1,0.4-2.1,0.7-3c0.4-1.3,1-2.6,1.5-3.9c0.3-0.8,0.5-1.6,0.8-2.3c0.2-0.5,0.5-1,0.8-1.7c0.9,1.8-0.4,2.9-0.3,4.3
									c1.3-2.6,2.7-5.2,4-7.9c-0.1-0.1-0.1-0.1-0.2-0.1c-0.3,0.3-0.6,0.5-0.9,0.8c-0.1-0.1-0.2-0.1-0.4-0.2c0.5-0.9,1-1.8,1.5-2.7
									c0,0-0.1-0.1-0.1-0.1c-0.4,0.5-0.8,0.9-1.3,1.4c-0.1-0.1-0.3-0.1-0.4-0.2c3.6-4,5.1-9,6.7-14.1c0.1,0.3,0.2,0.6,0.4,1
									c0.1,0,0.2,0,0.3,0.1c1.1-5.3,2.1-10.6,3.2-15.8c-0.1,0-0.2-0.1-0.4-0.1c-0.4,1.1-0.8,2.3-1.2,3.4c-0.2,0.5-0.7,1.2-0.5,1.6
									c0.4,1-0.2,1.7-0.4,2.5c-0.2,1.4-0.5,2.9-0.8,4.3c-0.1,0.7-0.3,1.4-0.7,2.1c0.2-4.1,0.6-8.2,2-12.1
									c-0.2-0.1-0.3-0.1-0.5-0.2c-0.3,0.7-0.7,1.3-1,2c-0.6,1.2-1.1,2.5-1.7,3.7c-1.5,3.2-4,5.8-6.1,8.7c-1.4,2-3.4,3.6-5.1,5.3
									c-0.3,0.3-0.7,0.4-1.1,0.6c-0.3,0.2-0.8,0.3-0.9,0.6c-0.5,1.2-1.7,1.1-2.6,1.4c-0.5,0.2-1.3-0.7-1.9-1
									c0.4-1.3,0.8-2.6,1.2-3.7c0.7-1.8,1.5-3.5,2-5.3c0.9-3.3,3.1-5.8,4.9-8.5c0.8-1.3,2.1-2.3,3-3.5c1-1.3,2.1-2.4,3.5-3.2
									c0.3-0.2,0.3-0.8,0.5-1.5c-1.8,0.5-2.7,2.3-4.5,2.4c0.2-0.8,7.1-5.3,8-5.2c-0.1-1.1-0.6-1.9-1.4-2.6c-1.7-1.4-3.9-1.7-6-2.2
									c-3-0.6-6.1-1.2-9.1-1.8c-2.2-0.5-4.5-0.9-6.7-1.4c-0.3-0.1-0.6-0.1-0.8,0c-2.7,1-5.4,2-8,3.1c-0.3,0.1-0.5,0.4-0.7,0.7
									c-0.5,1.2-0.8,2.4-1.3,3.6c-0.6,1.2,0.1,2.7,1.5,3.2c2.8,1,5.7,0.6,8.5,1.1c3.4,0.6,6.1-1.2,9.1-2.1c2.5-0.7,5-1.6,7.4-2.4
									c1.3-0.4,2.6-0.8,4-1.1c0.5-0.1,1.1,0,1.6,0c0,0.2,0.1,0.3,0.1,0.5c-0.9,0.3-1.8,0.7-2.7,1c-3.6,1.1-7.3,2.1-10.9,3.2
									c-1.6,0.5-3.2,1-4.8,1.6c-0.6,0.2-1.1,0.5-1.6,0.9c-2.5,1.8-4.9,3.5-7.3,5.3c-2.2,1.6-4.3,3.3-6.3,5.1
									c-1.5,1.3-2.9,2.6-4.3,3.9c-1.2,1-2.4,2-3.6,3c-1.5,1.3-2.9,2.5-4.3,3.9c-2.8,2.7-5.9,5.1-9.1,7.3c-0.6,0.4-1.4,1.1-1.3,1.5
									c0.2,0.9,1.2,0.8,2,0.8c2.5-0.2,4.6-1.2,5.9-3.3c0.9-1.3,2-1.8,3.4-1.9c0.8-0.1,1.7-0.1,2.5-0.1c1.1-0.1,2.2-0.1,3.3-0.3
									c-0.3,0.4-0.9,0.7-1.6,0.8c-1.3,0.2-2.6,0.4-3.9,0.3c-1.3,0-2.2,0.4-2.8,1.4c-1.3,2.3-3.6,3.2-5.9,3.9
									c-1.9,0.6-5.1-0.9-5.5-2.9c-0.1-0.4-0.3-0.8-0.4-1.2c-0.5-1.2-1.3-1.7-2.7-1.3c-1.1,0.3-2.3,0.7-3.4,1
									c-1.9,0.5-3-0.5-2.6-2.4c0.2-1.1,0.3-2.2,0.3-3.3c0-2.9-3.2-3.9-5.3-3.2c-0.3,0.1-0.6,0-0.9,0.1c-1,0.2-2,0.4-3,0.7
									c-1,0.3-2.1,0.6-3.1,1c-1.1,0.5-2.2,1-3.2,1.6c-1.5,0.9-3,2.2-4.9,1.5c-1-0.4-2.1-1.2-2.7-2.1c-0.8-1.2,0.1-2.8,1.5-3.2
									c3.1-0.9,6.2-1.6,9.2-2.7c3-1.1,6-2.2,8.7-4.1c2.4-1.7,3.5-4.2,2.7-7.2c-0.5-1.9,0.1-3.2,1.6-4.5c1.5-1.3,2.3-3.2,2.3-5.3
									c0-0.3,0-0.6,0-0.9c-0.4-2.6,1.2-4.4,3-5.6c2.3-1.5,3.5-3.6,4.1-6.1c0.5-1.9,1.7-3,3.2-3.9c1.6-1,3.3-1.7,4.9-2.8
									c1.6-1.1,3-2.5,4.6-3.7c0.4-0.3,1-0.5,1.5-0.8c0.1,0.1,0.1,0.2,0.2,0.3c-1.7,1.4-3.2,3-5,4.3c-1.8,1.2-3.8,2.2-5.6,3.2
									c0,0.1,0.1,0.2,0.1,0.3c0.3,0,0.6,0,0.9,0c2.8-0.4,5.7-0.3,8.5,0.3c1,0.2,2.1,0.2,3.1,0.4c2,0.4,3.9,0.9,5.8,1.4
									c1.3,0.3,2.5,0.6,3.7,1.1c2.4,0.9,4.8,1.7,7.1,2.8c2.9,1.5,6,2.3,9.1,2.7c2.1,0.3,4.2,0.7,6.2,1.1c1.6,0.3,3.2,0.6,4.8,0.8
									c0.8,0.1,0.9-0.2,0.7-1c-0.2-1.1-0.9-1.7-1.8-2.4c-1.9-1.5-3.6-3.4-5.4-5.1c-0.8-0.8-1.6-1.6-2.4-2.2
									c-1.9-1.4-3.7-2.9-5.7-4c-1.6-0.9-3.5-1.3-5.4-1.6c-3.6-0.6-7.2-1.2-10.9-1.5c-2.4-0.2-4.8,0.2-7.2,0.3
									c0.5-0.7,0.5-0.7,4.8-0.9c1.7-0.1,3.4,0.1,5.1,0.1c0-0.1,0-0.3,0-0.4c-2.1-0.2-4.3-0.3-6.4-0.5c0-0.2,0-0.3,0.1-0.5
									c5.4-0.3,10.6,1.2,15.9,2.3c0.1-0.1,0.1-0.2,0.2-0.3c-0.9-0.7-1.8-1.5-2.7-2.1c-3-2.1-6-4.2-8.9-6.4c-1.4-1-2.7-2.3-3.9-3.5
									c-2.1-2-2.5-4.5-2.1-7.2c0.1-1,0.2-2,0.2-3.1c0-2.1,1-3.8,1.9-5.6c0.5-0.9,0.8-2,1.1-2.9c0.2-0.7,0.3-1.5,0.6-2.1
									c0.9-2.3,1.9-4.6,2.9-6.9c0.1-0.3,0.2-0.6,0.4-0.8c1.6-2.7,3.5-5.3,4.6-8.4c0.8-2.3,2.1-4.5,3-6.7c0.9-2,1.5-4.1,2.3-6.2
									c1-2.8,2.2-5.7,4.5-7.8c0.5-0.5,0.9-1.1,1.4-1.6c1.2-1.2,2-1.4,3.5-0.6c1.6,0.9,3.2,1.8,4.6,2.9c1.3,1,2.5,2.1,3.6,3.3
									c1,1.1,1.9,2.3,2.6,3.6c1.9,3,3.8,6,5.4,9.1c1.1,2.1,1.9,4.5,2.8,6.8c0.8,2.1,1.5,4.3,2.1,6.5c0.3,1.1,0.5,2.2,0.8,3.3
									c0.6,3,1.3,6,1.8,9c0.6,3.8,0.8,7.6,1.3,11.4c0.4,2.5,0,5,0,7.5c0,2.9,0.1,5.8-0.1,8.7c-0.2,3.1-0.7,6.2-1,9.2
									c-0.1,0.5,0.1,1,0.2,1.5c0,0.3-0.1,0.7-0.1,0.7C101.4,181.6,101.8,181.6,102.2,181.7z M131.2,222c0.5,1.3,1,2.5,1.5,3.8
									c0.1-0.1,0.2-0.1,0.3-0.2c-0.5-1.2-1.1-2.5-1.6-3.7c-0.3-0.9-0.7-1.8-1-2.6c-0.2,0.1-0.3,0.2-0.5,0.2
									C130.4,220.4,130.8,221.2,131.2,222z M133.8,176.2c1.1-0.2,2.1-0.5,3.2-0.7c0-0.2-0.1-0.3-0.1-0.5c-1.1,0.2-2.2,0-3.1,0.9
									c-0.9,0.1-1.8,0.2-2.7,0.3c0,0.2,0.1,0.4,0.1,0.6C132.1,177,132.9,176.4,133.8,176.2z M98.8,178c0.1,0.1,0.2,0.1,0.3,0.2
									c0.2-1.1,0.5-2.1,0.7-3.2c-0.1,0-0.2,0-0.3-0.1c-0.2,1-0.4,2.1-0.4,3.3c-1,1-1.9,4.6-1.4,5.5C98.2,181.8,98.7,180,98.8,178z
									 M101.2,159.1c0.4-1.5-0.1-6.7-0.8-7.3c0.2,2.6,0.4,5,0.6,7.4c0,0.9,0.1,1.9,0.1,2.8c0.1,0,0.2,0,0.3,0
									C101.3,161,101.3,160,101.2,159.1z M85.6,208.8c0-0.3-0.1-0.7,0-0.9c0.1-0.3,0.4-0.6,0.5-0.9c0.1-0.4,0.2-1.1,0-1.3
									c-0.6-0.6-1.4-1.2-2.2-1.4c-0.2-0.1-0.9,1-1.2,1.6c-0.1,0.3,0.1,0.9,0.4,1.2C83.9,207.6,84.8,208.2,85.6,208.8
									c0.6,0.4,1.2,0.9,1.9,1.2c0.3,0.2,1,0.2,1.2,0.1c0.6-0.6,1-1.4,1.4-2.1C87.4,206.5,87.4,206.5,85.6,208.8
									C85.7,208.7,85.6,208.7,85.6,208.8z M9.2,217.8c0.4,0,0.9,0.2,1.3,0.1c1.1-0.3,2.1-0.6,3.2-0.9c2.3-0.7,4.6-1.3,7.1-0.9
									c2.6,0.4,4,2.1,3.9,4.7c-0.1,1.2-0.3,2.4-0.5,3.9c0.8-0.7,1.4-1.2,2-1.7c2.1-1.7,4.1-3.4,6.2-5.1c1.7-1.4,3.4-2.8,5.2-4.2
									c0.7-0.5,1.5-0.9,2.2-1.5c0.6-0.5,1.1-1.1,1.9-1.5c1.8-0.8,3.3-2.2,4.9-3.3c1.5-1.1,2.8-2.4,4.4-3.3c3.3-2,6.7-3.9,10.1-5.9
									c0.4-0.2,0.7-0.6,1.2-1c-1.7-0.6-3.1-0.6-4.6,0c-3.1,1.4-6.2,2.9-9.4,3.9c-3.8,1.2-7.1,3.2-10.8,4.7c-1,0.4-1.8,1.2-2.8,1.6
									c-1.3,0.7-2.8,1.2-4.1,1.9c-0.9,0.4-1.8,0.9-2.7,1.3c-1.2,0.5-2.4,0.9-3.6,1.3c-4.1,1.4-8.3,2.9-12.5,4.3
									c-0.9,0.3-1.9,0.6-2.8,0.9c-1.5,0.4-3,0.8-4.5,1.2c-0.9,0.3-1.9,0.6-2.8,1c0.5,1.3,1.7,2,2.8,1.6c1.5-0.6,2.8-1.5,4.2-2.3
									C9,218.5,9.1,218.1,9.2,217.8z M4.5,217.4c0.9-0.2,1.7-0.5,2.6-0.8c4.8-1.5,9.7-2.8,14.4-4.4c3.1-1.1,6.3-2.1,9.1-4
									c1-0.7,2.1-1.2,3.1-1.8c1.6-0.8,3.3-1.6,5-2.4c1.8-0.8,3.6-1.7,5.4-2.4c4.7-1.8,9.4-3.5,14.1-5.3c0.2-0.1,0.5-0.5,0.6-0.7
									c0-0.8-1.5-2-2.2-2c-1.1,0.1-2.3,0.1-3.4,0.2c-2.7,0.2-5.4,0.5-8.1,0.8c-0.9,0.1-1.8,0.4-2.7,0.5c-1.5,0.3-3,0.5-4.6,0.8
									c-1.1,0.2-2.1,0.5-3.1,0.8c-0.9,0.3-1.8,0.6-2.7,0.9c-2.5,0.8-5,1.6-7.4,2.5c-0.9,0.3-1.6,0.9-1,2c1.3,3,0.1,5.4-2.2,7.4
									c-3.1,2.7-6.8,4-10.5,5.3c-2.2,0.8-4.4,1.4-6.5,2.1c-1.1,0-1.8,0.5-2.3,1.4C2.8,218,3.7,217.7,4.5,217.4z M103.1,277.4
									c-0.2,0.4-0.4,0.7-0.4,1.1c-0.1,2.9-0.1,5.9-0.2,8.8c0,1.2-0.1,2.3-0.1,3.7c1.3-1,1.5-2.3,1.5-3.5c-0.1-3-0.3-6.1-0.5-9.1
									C103.3,278,103.2,277.7,103.1,277.4c0.4-3.2,0.9-6.4,2-9.5c0.8-2.3,2.7-3.9,5.2-3.9c2.1,0,4.1-0.6,5-2.6
									c1-2.3,2.5-3.7,5.2-3.5c1,0.1,1.7-0.5,1.8-1.5c0.1-0.5,0.1-1.1,0.1-1.6c-0.1-3-0.5-5.8-1.3-8.7c-0.9-3.3-1.5-6.7-2.7-9.9
									c-1.2-3.2-2.5-6.4-4.6-9.1c-1.3-1.8-1.6-1.7-3.2-0.1c-0.2,0.2-0.3,0.5-0.5,0.6c-0.2,0.2-0.5,0.4-0.8,0.5
									c-0.1-0.1-0.1-0.2-0.2-0.3c0.5-1.2,1.5-1.9,2.5-2.7c0.6-0.5,0.8-0.9,0.8-1.7c0-2.2,0.2-4.5,0.2-6.7c0-0.4,0.2-1,0-1.3
									c-0.9-1.8-1.9-3.5-2.9-5.2c-1.3-2.1-2.8-4.1-3.8-6.3c-1.2-2.6-2.6-4.8-5.1-6.2c-0.2-0.1-0.6-0.3-0.8-0.2
									c-0.2,0.1-0.3,0.5-0.2,0.8c0.2,3.7,0.6,7.4,0.8,11.1c0.1,2-0.1,4-0.2,6.1c0,1.2-0.2,2.4,0.2,3.5c0.7,1.9,1.8,3.6,2.6,5.4
									c1.1,2.4,2.7,4,5.5,4.3c0,0.4,0.1,0.9,0.1,1.4c-1-0.3-2-0.7-3-1c-0.2,0.8-0.3,1.3-0.4,1.9c-0.1,0-0.2,0-0.3,0
									c0-0.5-0.1-1-0.1-1.6c0.1-0.8-0.1-1.5-0.8-1.9c-1.1-0.6-1.6-1.3-1.9-2.5c-0.3-1.4-1.2-2.6-1.8-3.9c-0.2-0.4-0.5-0.8-0.7-1.2
									c-0.6,1.6-1.2,3.2-1.8,4.7c-0.3,0.9-0.7,1.7-1,2.6c-0.6,1.6-1.1,3.2-1.7,4.8c-0.9,2.4-1.9,4.8-2.8,7.3c-1,2.5-2,5-3,7.6
									c-0.8,2.1-1.7,4.2-2.6,6.3c-0.4,1.1-0.8,2.1-1.2,3.2c-0.7,1.9-1.4,3.7-2.1,5.6c-0.3,0.8,0.1,1.2,0.8,1.3
									c0.4,0.1,0.8,0.1,1.3,0c1.9-0.2,2.6,0.4,3,2.2c0.3,1.6,0.8,3.2,1.1,4.2c0.3-1,0.9-2.5,1.3-4.1c0.8-2.7,1.5-5.4,2.3-8.1
									c1.1-3.6,2.3-7.1,3.4-10.7c0.8-2.6,1.6-5.3,2.3-8c0.4-1.4,0.5-2.9,0.8-4.2c0.6-2.2,1.2-4.3,1.9-6.5c0.1-0.2,0.2-0.4,0.4-0.6
									c0.1,0,0.3,0.1,0.4,0.1c-0.1,0.6,0,1.3-0.2,1.9c-0.2,1-0.7,1.9-0.9,2.9c-0.6,2.8-1.1,5.7-1.8,8.5c-0.8,2.9-1.8,5.8-2.7,8.7
									c-1.2,3.8-2.6,7.7-3.8,11.5c-0.9,2.9-1.8,5.9-2.6,8.9c-0.1,0.2,0,0.5,0,0.9c0.8-0.6,1.4-1,2-1.4c1.3-0.7,2.7-1.3,4.1-0.4
									c1.7,1.1,2.7,2.8,3,4.8c0.3,2,0.4,4,0.5,6c0,0.6,0,1.2-0.1,1.8c-0.3,1.4-0.7,2.9-0.8,4.3c-0.1,1.2,0.1,2.4,0.4,3.5
									c0.1,0.4,0.7,0.6,1.1,1c0.2-0.4,0.6-0.8,0.6-1.2c0.1-2.5,0.2-5,0.2-7.5c0-2.7,0.1-5.4,0.1-8c0-2.5-0.1-5,0-7.4
									c0.1-1.8,0.3-3.6,0.4-5.4c0.3-3.6,0.6-7.2,0.9-10.8c0.3-3.4,0.7-6.8,1-10.1c0.1-1,0.3-1.9,0.5-3.1c0.3,0.3,0.4,0.3,0.4,0.4
									c-0.1,2.9-0.1,5.8-0.4,8.7c-0.2,2.4-0.6,4.8-0.9,7.2c-0.2,1.7-0.3,3.3-0.5,5c-0.3,3.4-0.6,6.8-0.8,10.2
									c-0.1,2.2-0.1,4.5,0,6.7C102.6,275.7,102.9,276.6,103.1,277.4z M65.8,115.9c-0.9,1.5-1.7,2.8-2.4,4.1
									c-0.2,0.4-0.5,0.8-0.6,1.2c-0.1,0.3,0,0.7,0.2,0.9c2.1,1.6,4.4,3,6.4,4.6c2.6,2,5.3,4,7.6,6.4c2.4,2.5,4.5,5.4,6.7,8.1
									c0.2,0.2,0.5,0.5,0.7,0.5c1.4,0.1,2.9,0,4.3,0.1c0.2,0,0.4,0.1,0.8,0.3c-1,0.9-2,0.6-2.9,0.6c-1.8,0-2.1,0.2-2.2,2
									c-0.1,1.4-0.1,2.9-0.6,4.2c-0.6,1.6-0.3,3,0,4.5c0.3,1.8,0.5,3.6,0.8,5.4c0.2,1.2,0.4,2.5,0.7,3.7c0.3,1.4,0.5,2.9,1.1,4.2
									c1.1,2.6,2.5,5,3.7,7.6c1.1,2.5,2.1,5.1,3.1,7.6c0.6,1.3,1.3,2.6,2,4.2c0.4-0.5,0.8-0.9,0.8-1.3c0-1.3,0.4-2.6,0.8-3.8
									c0.9-3,1.7-6.1,2.2-9.3c0.4-2.8,0.6-5.7,0.6-8.6c0-2.6-0.2-5.3-0.5-7.9c-0.2-2.2-0.4-4.4-1.1-6.5c-0.7-2-1.9-3.9-2.9-5.8
									c-0.4-0.7-0.8-1.1-1.7-1.1c-1,0-2-0.5-3,0.1c-0.1,0-0.3-0.1-0.4-0.1c0.9-1.4,0.9-1.5,0-2.7c-1.9-2.3-3.8-4.7-5.7-7
									c-1.4-1.6-2.9-3.1-4.5-4.6c-1.4-1.3-2.8-2.4-4.3-3.6c-2.3-2-4.7-4-7-5.9C67.6,117.2,66.7,116.6,65.8,115.9z M147.8,183.5
									c-0.1,0-0.3,0-0.4,0.1c-0.1-0.5-0.2-1-0.2-1.5c0.1-1.6-1.2-3.5-2.8-3.6c-2.1-0.2-4.2-0.3-6.3-0.3c-1.3,0-2.6,0.4-3.9,0.6
									c-0.6,0.1-1.2,0.2-1.8,0.3c-0.8,0.2-1.5,0.5-2.3,0.7c-0.7,0.2-1.5,0.5-2.2,0.7c-0.3,0.1-0.6,0.1-0.8,0.1c-0.3,0-0.7-0.1-1,0
									c-2.3,0.6-4.2,2.3-6.7,2.4c-0.1,0-0.1,0.1-0.2,0.1c-1,0.6-2.1,1.2-3.1,1.8c-2.2,1.3-4.5,2.6-6.7,3.9c-1.8,1.1-3.3,2.7-5.7,3
									c0,0.4,0,0.7,0,1.1c1.3,0.1,2.5,0.3,3.7,0.4c2.5,0.1,5-0.1,7.6,0.1c2,0.1,3.9,0.6,5.8,0.9c0.6,0.1,1.5,0.1,1.8-0.2
									c0.8-0.8,1.6-0.3,2.4-0.1c-0.3,0.1-0.6,0.2-1,0.4c0.3,0.1,0.4,0.2,0.5,0.1c0.6-0.2,1.4,0.3,1.9-0.7c0.1-0.2,1.2,0.1,1.8,0.4
									c0.9,0.3,1.6,0.5,2.1-0.8c0.5,1.2,0.8,0.4,1.2,0.2c1.4,0.9,2.9,0.6,4.1,0.2c3.2-1,6.3-2.1,9.4-3.4c2.6-1.1,2.5-0.9,2.5-3.7
									c0-0.4,0.1-0.7,0.2-1.1c0.1,0,0.3,0,0.4,0c0.2,0.8,0.4,1.5,0.4,2.3c0,0.7,0.3,1.1,0.9,1.2c1.1,0.3,2.1,0.6,3.2,1
									c3.2,1.3,6.4,2.8,9.6,4.1c3.5,1.5,6.7,3.5,9.7,5.9c1,0.7,2,1.3,2.8,1.9c1.2-1,2.3-2,3.4-2.8c1.7-1.2,1.7-1.4,0-2.6
									c-0.1-0.1-0.3-0.2-0.4-0.3c-3.2-2.7-6.8-4.9-10.7-6.4c-1.2-0.5-2.4-0.8-3.5-1.4c-1.4-0.7-2.8-1.6-4.2-2.2
									c-3-1.3-6-2.4-9-3.7C148.4,181.6,148.4,181.6,147.8,183.5z M134.2,214.2c0.1-0.2,0.3-0.4,0.4-0.6c1.5,1.1,3,2.3,4.6,3.3
									c2.9,1.9,5.9,3.8,8.8,5.7c0.1,0.1,0.4,0.1,0.6,0c1.3-0.5,2.5-0.9,3.7-1.4c0.5-0.2,0.9-0.4,1.4-0.5c0.7-0.2,1.5-0.3,2.2-0.4
									c0-0.1,0-0.2,0-0.4c-1.3-1.1-2.6-2.2-4-3.2c-3.5-2.6-7.1-5.2-10.6-7.9c-3-2.4-5.9-4.8-8.8-7.4c-1.4-1.3-2.6-2.8-3.9-4.2
									c-0.7-0.7-1.2-1.6-2.5-1.1c-0.5,0.2-1.3,0-1.8-0.3c-0.8-0.4-1.4-0.7-2.2-0.1c-0.1,0.1-0.4,0.1-0.6,0
									c-0.8-0.3-1.5-0.7-2.3-0.9c-3.1-0.7-6.2-0.9-9.3-0.8c-1.3,0.1-2.6,0.2-4.1,0.3c0.4,0.4,0.6,0.7,0.9,0.8
									c1.8,0.7,3.6,1.5,5.4,2.1c0.2,0.1,0.7-0.3,0.8-0.6c0.2-0.7,0.3-1.4,0.5-2.2c0.9,0.9,0.7,1.6,0.4,2.4
									c-0.2,0.6-0.4,1.1,0.2,1.5c4.5,3.2,8.9,6.3,13.3,9.6c2.2,1.6,4.2,3.3,6.3,5c0.2,0.1,0.3,0.4,0.4,0.7c-0.5,0-0.9-0.1-1.2-0.3
									c-1.2-0.9-2.4-1.8-3.7-2.7c-5.3-3.9-10.6-7.9-15.9-11.7c-1.2-0.9-2.7-1.3-4.1-1.9c-0.1,0.1-0.1,0.2-0.2,0.4
									c0.7,0.4,1.3,0.8,2,1.3c1.2,0.8,2.3,1.8,2.5,3.3c0.1,0.8,0.5,0.9,1.1,1.2c1.1,0.5,2.1,1.1,3.1,1.7c0.7,0.4,1.2,0.9,1.9,1.3
									c1.4,0.9,2.9,1.8,4.2,2.7c2.1,1.5,4.2,3.1,6.3,4.6c1.2,0.8,2.5,1.5,3.7,2.4c1.2,0.9,2.2,2.1,3.5,2.9
									c2.1,1.3,4.3,2.5,6.6,3.6c0.9,0.4,2,0.6,3.1,0.5c-2.2-1.4-4.5-2.5-6.6-3.9C138.2,217.5,136.2,215.8,134.2,214.2z M129,195.3
									c0,0.1-0.1,0.3-0.1,0.4c1.7,1.9,3.3,3.8,5.1,5.5c1.5,1.4,3.2,2.7,4.8,4c1.6,1.3,3.1,2.6,4.6,3.8c0.9,0.7,1.9,1.4,2.8,2.2
									c3.4,2.7,6.7,5.4,10.1,8c0.2,0.2,1.1,0,1.2-0.2c0.9-1.9,2.4-3.1,4.2-4c0.4-0.2,0.7-0.5,1-0.8c1.4-1.4,2.7-2.8,4.1-4.1
									c0.6-0.6,1.3-1,2-1.6c-0.6-0.5-1-0.8-1.4-1.2c-3.2-3-6.9-5.3-10.8-7.3c-4.2-2.1-8.4-4.1-12.6-6.1c-1.4-0.7-2.7-1.5-4.4-0.6
									c-1.1,0.6-2.3,0.8-3.5,1.2c0,0.1,0,0.3-0.1,0.4c2.2,1.6,4.3,3.2,6.6,4.8c1.5,1,3.1,1.9,4.5,2.9c1.6,1.1,3.1,2.2,4.6,3.4
									c2.8,2.2,5.6,4.3,8.4,6.5c0.6,0.5,1,1.1,1.5,1.6c-0.1,0.1-0.2,0.2-0.3,0.3c-0.3-0.2-0.7-0.3-1-0.5c-0.8-0.7-1.6-1.4-2.4-2
									c-2.8-2.2-5.6-4.4-8.5-6.5c-4.2-3-8.9-5.5-12.8-8.9c-1.1-1-2.4-1.9-4.1-1.3c-0.2,0.1-0.5-0.1-0.8-0.1
									C130.9,195.2,129.9,195.3,129,195.3z M130.7,242.7c0.2-0.3,0.3-0.4,0.3-0.5c0.3-2.9,0.8-5.7,2.6-8c0.2-0.2,0.2-0.7,0.2-1
									c-0.8-3-1.7-6-2.6-9c-0.3-0.8-1-1.6-1.3-2.4c-0.5-1.2-0.9-2.4-1.5-3.5c-1.1-2.1-2.2-4.1-3.4-6.1c-1.6-2.7-4.2-4.5-6.8-6
									c-1.2-0.7-2.5-1.6-3.7-2.3c-1.6-0.8-3.4-1.5-5-2.4c-1.8-1-3.4-2.1-4.9-3c-0.5-0.8-1-1.4-1.3-2.1c-0.5-1.1-1.4-0.5-2.3-0.5
									c0.2,0.4,0.5,0.8,0.8,1c1.1,0.9,2.4,1.7,3.2,2.8c1.2,1.7,2.1,3.6,3.1,5.5c1.4,2.5,2.8,5,4.2,7.5c0.7,1.2,1.3,2.6,2.1,3.7
									c1.8,2.4,3.9,4.6,5.7,7c1.5,1.9,3,3.9,4.2,6c1.8,3,3.3,6.1,4.9,9.2C129.8,239.8,130.1,241.2,130.7,242.7z M51.8,145.6
									c-0.2,2.4-0.4,4.4-0.4,6.5c0,0.7,0.5,1.7,1.1,2.1c3,2.4,6,4.8,9.2,6.9c2.7,1.9,5.7,3.4,8.5,5.1c1.1,0.7,2.1,1.4,3.2,2.1
									c2.6,1.6,5.4,3.1,7.9,4.8c1.7,1.2,3.2,2.7,4.8,4c0.3,0.3,0.9,0.3,1.4,0.3c0.5,0,1-0.2,1.6-0.3c0,0.1,0.1,0.2,0.1,0.3
									c-0.2,0.2-0.3,0.4-0.5,0.5c-1.3,0.7-1.3,0.9-0.3,2c1.5,1.7,3,3.3,4.5,5c-0.1-1.1-0.4-2-0.8-2.9c-1.8-4.9-3.8-9.8-6.2-14.4
									c-0.8-1.5-1.8-2.4-3.4-3c-1.5-0.6-2.9-1.4-4.3-2.2c-2.1-1.2-4.2-2.5-6.3-3.8c-1.1-0.7-2.3-1.4-3.4-2.1
									c-1.1-0.7-2.2-1.4-3.3-2.1c-1.4-0.8-2.8-1.4-4.1-2.2c-2.4-1.5-4.6-3.2-6.9-4.8C53.5,146.8,52.8,146.3,51.8,145.6z
									 M24.9,224.8c0.1,0.1,0.1,0.3,0.2,0.4c1-0.4,2.1-0.7,3.1-1.1c2.2-0.9,3.3-0.8,4.4,0.7c0.4,0.5,0.5,1.2,0.8,1.9
									c0.4,1.1,0.7,1.2,1.6,0.4c1.2-1,2.5-1.9,3.7-2.8c1.8-1.4,3.5-2.7,5.2-4.2c1.6-1.4,3-2.9,4.6-4.3c2.2-1.9,4.5-3.8,6.7-5.6
									c3.4-2.8,6.7-5.7,10.1-8.4c1.3-1,2.6-2,3.9-3c0.2-0.2,0.4-0.4,0.5-0.7c0,0-0.2-0.4-0.4-0.4c-2.2,0-4.5-1-6.7,0.4
									c-2.7,1.7-5.6,3.1-8.3,4.8c-2.6,1.6-5.1,3.5-7.6,5.3c-3.1,2.2-6.3,4.4-9.4,6.7c-3.1,2.3-6.1,4.7-9.1,7.1
									C27.1,222.9,26,223.9,24.9,224.8z M82.6,261.5c0.4-0.9,0.7-1.4,0.9-2c0.9-2.5,1.7-5,2.7-7.4c1.3-3.2,2.6-6.4,3.9-9.6
									c0.7-1.9,1.4-3.8,2.1-5.7c1-2.6,2.1-5.2,3.1-7.9c0.5-1.2,0.9-2.5,1.4-3.7c0.9-2.5,2.2-4.9,2.7-7.5c0.5-2.7,0.4-5.5,0.2-8.3
									c-0.1-3-0.5-6.1-0.9-9.1c0-0.5-0.2-0.9-0.3-1.4c-0.5,0.8-0.6,1.5-0.8,2.3c-0.9,4.3-1.7,8.7-2.7,13c-0.6,2.6-1.4,5.1-2.4,7.6
									c-1.2,3-2.6,5.9-4,8.9c-1.1,2.3-2.3,4.5-3.3,6.8c-1,2.2-2.1,4.3-2.2,6.7c0,0.6-0.5,1.3-0.4,1.9c0.1,1.2,0.4,2.3,0.7,3.5
									c0.3,1.2,0.4,2.4-0.3,3.5c-1.2,1.8-1.4,3.8-1.3,5.8C81.7,259.5,81.6,260.5,82.6,261.5z M84.6,164.6c0.2-0.1,0.4-0.2,0.6-0.3
									c-0.3-1.1-0.8-2.2-1-3.3c-0.2-1.1-0.4-2.3-1.4-3.1c-1-0.8-2-1.6-3-2.3c-0.9-0.7-2-1.2-2.8-2c-2.2-2.5-5-4.2-7.6-6
									c-2.2-1.6-4.6-2.9-7-4.4c-2.2-1.4-4.4-2.7-6.7-4.1c-0.8-0.5-1.1-0.2-1.4,0.6c-0.5,1.4-1.2,2.8-1.9,4.1
									c-0.4,0.8-0.3,1.3,0.4,1.8c5.3,3.4,10.6,6.9,16,10.3c3.3,2.1,6.7,4,10.2,6C80.9,162.9,82.8,163.7,84.6,164.6z M28,188.6
									c0.1,0.1,0.1,0.1,0.1,0.2c1.6-0.6,3.2-1.2,4.8-1.6c1.1-0.3,2.2-0.4,3.3-0.6c2.1-0.3,4.2-0.7,6.3-0.7c3.8,0,7.6,0.2,11.3,0.4
									c1.6,0.1,3.2,0.3,4.7,0.9c1.2,0.5,2.2,0.4,3.2,0.1c1.2-0.4,2.4-0.9,3.7-1.3c0.9-0.3,1.8-0.7,2.9-1.1
									c-0.5-0.3-0.7-0.4-0.9-0.5c-1.8-0.8-3.6-1.6-5.4-2.2c-2.7-1-5.4-1.9-8.2-2.6c-2.5-0.7-5-1.1-7.5-1.4
									c-2.4-0.3-4.9-0.7-7.3-0.4c-3.7,0.5-3.8,0.4-5.1,4.3c-0.6,1.6-1.5,3.2-3,4.3C29.9,186.9,29,187.8,28,188.6z M24.5,199.1
									c0.1,0.1,0.1,0.1,0.2,0.2c1.4-0.5,2.8-1,4.3-1.5c1.9-0.7,3.8-1.4,5.8-1.9c4.2-1.2,8.5-2.1,12.9-2.5c2.7-0.3,5.4-0.5,8.1-0.4
									c1.8,0.1,2.9-0.3,3.6-2.1c0.8-1.9,0.6-2.7-1.4-3.1c-1.5-0.3-3.1-0.5-4.7-0.7c-2.7-0.3-5.4-0.6-8.1-0.6c-2.7,0-5.3,0.5-8,0.7
									c-2.7,0.2-5.4,0.8-7.9,1.9c-1.6,0.7-1.9,1.2-1.8,2.9c0.1,2.3-0.5,4.5-2.2,6.2C24.9,198.4,24.8,198.7,24.5,199.1z
									 M58.3,129.8c-0.2,0.4-0.3,0.7-0.4,1c-0.8,2-1.6,4-2.5,5.9c-0.4,0.9-0.2,1.3,0.6,1.8c2.8,1.6,5.7,3.2,8.5,4.9
									c1.4,0.8,2.7,1.8,4,2.7c2.4,1.6,4.8,3.2,7.2,4.9c2.3,1.7,4.6,3.6,6.8,5.4c0.2,0.2,0.5,0.2,1,0.4c-0.3-1.7-0.5-3.1-0.8-4.6
									c-0.2-0.8-0.5-1.6-1-2.2c-1.8-2.1-3.6-4.2-5.6-6.1c-1.9-1.9-3.9-3.6-5.9-5.3c-2.2-1.8-4.3-3.6-6.6-5.3
									C62,132,60.2,131,58.3,129.8z M113.4,217.3c-0.1,0.8-0.2,1.2-0.2,1.7c0,1.4,0,2.8,0.1,4.2c0.1,0.7,0.2,1.4,0.5,2
									c0.5,0.9,1.2,1.6,1.6,2.5c1,1.9,2,3.8,2.9,5.7c0.4,1,0.7,2,1.1,3c0.4,1.2,1,2.5,1.3,3.7c0.6,2.1,1,4.2,1.5,6.3
									c0.3,1.3,0.5,2.6,0.7,3.9c0.1,1.4,0.1,2.8,0.2,4.2c0.1,0,0.2,0,0.4,0.1c0.2-0.8,0.5-1.6,0.7-2.4c0.7-2.3,1.4-4.4,4.1-5
									c1.6-0.4,2-1.3,1.9-3c-0.1-2.8-1.5-5.1-2.5-7.6c-1-2.4-2.4-4.6-3.9-6.7c-2.9-4.1-5.9-8-9-11.9
									C114.6,217.8,114,217.7,113.4,217.3z M58.7,129c9,5.9,16.9,12.5,23.8,20.5c0.2-0.3,0.3-0.4,0.3-0.6c0.3-2,0.6-4,0.8-6
									c0-0.1,0-0.3-0.1-0.4c-0.5-0.8-1-1.5-1.6-2.2c-0.9-1.2-1.8-2.4-2.8-3.5c-1.6-1.7-3.1-3.5-4.8-5.1c-1.4-1.4-3.1-2.6-4.6-3.8
									c-2-1.6-4.1-3.2-6.2-4.7c-1-0.7-1.2-0.6-1.6,0.6c-0.2,0.5-0.5,0.9-0.7,1.3C60.4,126.4,59.5,127.8,58.7,129z M68.4,109.4
									c-0.9,1.9-1.7,3.5-2.3,5.1c-0.1,0.3,0.2,0.9,0.5,1.2c1.1,0.9,2.2,1.7,3.3,2.5c5.3,3.7,10.1,8,14.5,12.8
									c2.6,2.8,4.9,5.9,7.3,8.9c0.6,0.8,1.2,1.2,2.4,0.9c-0.5-1.3-0.8-2.6-1.4-3.8c-1.5-3.1-3.1-6.1-4.7-9.2
									c-0.4-0.8-0.7-1.8-1.4-2.5c-3.4-3.4-6.8-6.9-10.5-10.1C73.8,113,71.1,111.4,68.4,109.4z M150.3,176.8c0,0.1,0,0.2,0.1,0.4
									c0.2,0.1,0.3,0.2,0.5,0.2c1.8,0.4,3.6,0.7,5.4,1c1.6,0.3,3.3,0.2,4.8,0.8c1.4,0.5,2.7,0.9,4,0.6c2.7-0.6,5.3-0.2,8,0.1
									c3,0.4,6.1,0.8,8.9,2.1c2,0.9,4,1.7,6,2.6c1,0.5,1.8,1.1,2.7,1.7c0.8-0.8,1.6-1.6,2.3-2.4c0.6-0.6,0.4-1.2-0.2-1.7
									c-2.3-2.2-5.1-3.6-8-4.6c-2.9-1-5.9-1.5-8.9-2.2c-0.9-0.2-1.9-0.2-2.8-0.3c-3.8-0.2-7.5-0.6-11.3-0.6c-2.7,0-5.4,0.7-8,1.2
									C152.5,175.9,151.4,176.4,150.3,176.8z M184.8,193.1c0-0.2,0.1-0.3,0.1-0.5c-3.4-2-6.8-4.1-10.2-6.1
									c-1.9-1.1-3.9-2.1-5.8-3.1c-1.8-0.9-3.5-2.1-5.3-2.6c-4.6-1-9.3-1.7-13.9-2.5c-1-0.2-2,0-3,0c0,0.2-0.1,0.3-0.1,0.5
									c0.7,0.5,1.3,1.3,2,1.6c3.2,1.5,6.4,2.9,9.6,4.3c3.4,1.5,6.8,2.8,10.2,4.4c3.8,1.8,7.3,4,10.5,6.7c1.2,1.1,1.2,1.1,2.3-0.1
									c0.3-0.3,0.7-0.6,1.1-0.9C183.1,194.3,183.9,193.7,184.8,193.1z M142.8,192.1c0.6,0.4,0.8,0.6,1.1,0.7
									c4.2,2.1,8.5,4.2,12.7,6.3c2.1,1.1,4.1,2.2,6.1,3.4c2.4,1.6,4.8,3.2,6.8,5.5c0.2-0.2,0.4-0.4,0.6-0.6c1.4-1.4,2-3.4,4-4.2
									c0.5-0.2,0.4-0.8-0.1-1.1c-2.6-1.8-5.1-3.8-7.9-5.4c-2.4-1.4-5-2.2-7.6-3.3c-2.9-1.2-5.9-2.4-8.9-3.5
									c-0.3-0.1-0.6-0.3-0.9-0.2C146.7,190.5,144.9,191.2,142.8,192.1z M94.3,138.6c0.1,0,0.3,0,0.4-0.1c0-2.2,0-4.3-0.1-6.5
									c0-0.9-0.1-1.9-0.4-2.7c-0.6-2-1.4-3.9-1.8-5.9c-0.9-3.9-2.9-7.3-4.8-10.8c-0.8-1.5-2-2.9-2.9-4.4c-2.1-3.2-4.7-6.1-7.9-8.2
									c-2.1-1.4-2.6-1.6-4.1,0.6c-0.1,0.2-0.4,0.4-0.6,0.6c-0.5,0.5-0.4,0.9,0.2,1.2c3.7,2.2,6.9,4.8,9.2,8.5
									c1.1,1.7,2.1,3.4,3,5.2c0.9,1.9,1.7,3.9,2.5,5.9c0.2,0.6,0.4,1.2,0.5,1.9c0.2,0.8,0.3,1.7,0.7,2.5c1.4,3,3,5.9,4.4,8.8
									C93.3,136.3,93.8,137.5,94.3,138.6z M88.3,181.4c-0.5-0.7-1-1.4-1.6-2.1c-2.7-3.1-6.1-5.6-9.6-7.7c-3.7-2.3-7.4-4.5-11-6.8
									c-3.4-2.2-6.8-4.6-10.1-6.9c-1.3-0.9-2.5-1.8-3.7-2.8c0,0.5,0.1,0.8,0.3,1.1c1.7,1.6,3.3,3.4,5.2,4.8
									c2.3,1.8,4.7,3.4,7.1,5.2c3,2.2,5.9,4.5,8.9,6.7c1.4,1,3,1.9,4.3,3.1c2.1,1.8,4,3.9,6.1,5.7c1.7,1.5,3.7,2.6,5.6,4
									c0.6,0.5,1.2,1,1.8,1.5c-0.1,0.1-0.2,0.3-0.3,0.4c-0.9-0.5-1.8-1-2.8-1.6c-0.1,1.9,0.2,2.3,1.5,2.2c1.6-0.1,2.7-1,3.6-2.2
									c-0.6-0.2-1.3-0.2-1.6-0.5c-2.6-2.8-5.8-4.8-9.2-6.3c-0.2-0.1-0.5-0.3-0.7-0.4c0.1-0.1,0.1-0.2,0.2-0.3
									C84.3,178.9,86.3,180.1,88.3,181.4z M166.3,180.5c0,0.1,0,0.1,0,0.2c0.9,0.6,1.7,1.2,2.6,1.7c1.8,1,3.6,1.9,5.5,2.9
									c1.4,0.7,2.8,1.4,4.1,2.3c2.2,1.4,4.2,3,6.4,4.5c0.3,0.2,1.1,0.2,1.4-0.1c1.2-1.2,2.4-2.6,3.6-3.8c0.4-0.5,0.5-0.8,0-1.2
									c-1-0.7-2-1.5-3.1-2.1c-1.1-0.6-2.3-1.1-3.5-1.5c-2-0.7-4.1-1.6-6.2-2c-2.8-0.5-5.8-0.7-8.6-0.9
									C167.7,180.3,167,180.5,166.3,180.5z M86.2,123.3c0.1-0.1,0.2-0.2,0.3-0.2c-0.7-1.6-1.3-3.2-2-4.7c-0.8-1.8-1.7-3.6-2.7-5.2
									c-1.3-2-2.6-4.1-4.2-5.8c-1.5-1.6-3.4-2.8-5.2-4.1c-1-0.7-1.2-0.6-1.7,0.5c-0.5,1.1-1.1,2.2-1.7,3.3
									c-0.7,1.3-0.7,1.4,0.5,2.2c2.5,1.7,5.1,3.3,7.4,5.2c2.5,2,4.8,4.3,7.1,6.5C84.7,121.8,85.4,122.6,86.2,123.3z M96.2,195.3
									c-0.1-0.1-0.2-0.3-0.3-0.4c0.6-0.4,1.1-1,1.7-1.2c1-0.4,1.8-0.9,2.4-1.8c0.7-1,1.7-1.8,1.9-3.2c0-0.1,0.1-0.1,0.2-0.2
									c0.2,0.1,0.3,0.3,0.6,0.5c-0.1-0.7-0.2-1.3-0.3-2c0.6,0.3,1,0.4,1.3,0.6c1.3-2,1.2-2.8-0.3-3.9c-1.9-1.4-3.1-1.4-4.5,0.1
									c0.4,0.5,0.8,1,1.2,1.4c-0.1,0.1-0.2,0.2-0.3,0.3c-0.4-0.2-0.9-0.5-1.3-0.5c-1.8,0.2-2.9,1.2-3.5,2.8
									c-0.2,0.6,0.2,1.4,0,1.9c-0.5,1.3-0.5,2.9-1.6,4c-0.5,0.4-0.4,0.8,0.1,1.1c0.9,0.5,1.8,1,2.8,1.6c0.2-0.6,0.4-1,0.6-1.4
									C96.7,195.1,96.4,195.2,96.2,195.3z M92.5,203.7c0.2-0.5,0.4-0.9,0.6-1.3c0.6-0.9,0.4-1.6-0.5-2.2c-0.6-0.4-1.2-0.6-1.7-1.1
									c-0.8-0.8-1.6-0.7-2.3,0c-0.5,0.5-0.8,1.1-1.3,1.9c-0.8-0.3-1.2,0.7-1.9,1.3c-0.8,0.8-0.5,1.2,0.2,1.7
									c1.1,0.8,2.3,1.5,3.4,2.2c1.6,1.1,2.3,0.8,2.9-0.9c0.2-0.6,0.2-1.1-0.6-1.3c-0.3-0.1-0.6-0.4-0.9-0.5c0-0.1,0.1-0.2,0.1-0.3
									C91.1,203.3,91.8,203.5,92.5,203.7z M82.1,212.6c-2.8-2.1-2.5-1.7-3.6,0.6c0,0,0,0.1-0.1,0.1c-0.5,0.7-0.2,1.1,0.5,1.2
									c1.3,0.2,2.4,0.8,3.2,2c0.1,0.2,0.7,0.3,0.9,0.2c1.6-0.8,1.7-1.7,0.6-3.1c-0.2-0.2-0.4-0.4-0.6-0.6
									c-0.6,0.6-1.2,1.2-1.7,1.7c-0.1-0.1-0.2-0.1-0.3-0.2C81.4,213.9,81.8,213.3,82.1,212.6z M103.4,193.4
									c-0.5,1-0.4,1.6,0.2,2.4c1.8,2.3,4.2,3.9,6.7,5.4c0.8,0.5,1.8,0.9,2.6,1.3c-0.2-0.6-0.5-1-0.8-1.5c-1-1.4-2.3-2.4-3.9-3.2
									C106.2,196.9,104.3,195.8,103.4,193.4z M97.3,145c0.2-0.1,0.3-0.1,0.5-0.2c-0.6-4.1-0.7-8.4-2-12.4c-0.2,0.3-0.2,0.7-0.2,1
									c0,1.6,0.1,3.3,0.1,4.9c0,0.8-0.5,1.6-0.3,2.2C95.8,142,96.6,143.5,97.3,145z M141.1,176.9c0,0.1,0,0.3,0.1,0.4
									c0.9,0.1,1.8,0,2.6,0.3c1.3,0.4,2.6,0.1,3.8-0.4c1-0.4,1.9-0.9,2.9-1.3c0.8-0.3,1.5-0.5,2.3-0.8c0-0.1-0.1-0.2-0.1-0.4
									C148.8,175.4,144.9,176.1,141.1,176.9z M76.7,217.3c2.1,0.4,2,0.4,3.3,2c0.1,0.2,0.6,0.2,0.8,0.1c0.3-0.2,0.5-0.6,0.7-0.9
									c0.9-0.9,0-1.5-0.4-2c-0.6-0.7-0.8,0.3-1.2,0.5c-0.1,0.1-0.2,0.1-0.3,0.1c0-0.5,0.1-1.2-0.1-1.4c-0.3-0.3-1.2-0.5-1.5-0.3
									C77.5,215.8,77.2,216.5,76.7,217.3z M80.7,208.7c-0.1,0.6-1.3,1.1-0.1,1.8c2,1.3,2.3,1.3,3.4-0.6c0.9-1.5-0.9-1.6-1.5-2.1
									C81.5,206.9,81.3,208.2,80.7,208.7z M86.4,210.4c-1.1-0.7-1.5-0.6-2.4,0.8c-0.5,0.8-0.1,2,1.1,2.6c1.4,0.6,1.5-1.1,2.1-1.7
									C87.9,211.3,87,210.8,86.4,210.4z M92.1,194.4c-0.4,0.5-0.8,0.7-0.8,0.9c-0.1,0.8-0.3,1.9,0.1,2.4c0.4,0.5,1.5,0.4,2.3,0.5
									c0,0,0.2-0.5,0.2-0.6C93.4,196.6,92.8,195.6,92.1,194.4z M77.7,221.5c1.6-1,1.7-1.2,0.9-2.3c-0.4,0.2-0.8,0.3-1.3,0.6
									c0.1-0.6,0.1-0.9,0.2-1.3c-0.1-0.1-0.2-0.2-0.2-0.3c-0.4,0.3-0.9,0.5-1,0.8C75.6,220.5,77.3,220.6,77.7,221.5z M94.4,187.3
									c-0.6,0.4-1.2,0.8-1.8,1.2c-0.4,0.3-0.7,0.7-1,1.1c0.4,0.2,0.9,0.4,1.3,0.6c0.1,0.1,0.3,0,0.5,0c0,0.5,0,1,0,1.5
									c0.1,0,0.3,0,0.4,0C94.1,190.2,92.9,188.4,94.4,187.3z M110.1,186.8c-0.1-0.1-0.1-0.2-0.2-0.3c-1.2,0.7-2.3,1.4-3.5,2.1
									c-0.4,0.2-0.9,0.4-1.4,0.4c-1.1,0-1,0.6-0.8,1.6C106.2,189.3,108.2,188.1,110.1,186.8L110.1,186.8z M77.1,99
									c1.9,1.7,4.2,3.7,6.4,5.7C81.8,102.2,79.6,100.1,77.1,99z M130.2,177.2c0-0.1-0.1-0.2-0.1-0.4c-1.3,0-4.9,1.5-5.4,2.4
									C126.6,178.5,128.4,177.9,130.2,177.2z M110.2,185c0.1,0.2,0.2,0.3,0.3,0.5c1.7-0.9,3.5-1.9,5.2-2.8
									c-0.1-0.1-0.1-0.2-0.2-0.3C113.7,183.3,111.9,184.2,110.2,185z M109,186.3c-0.1-0.1-0.1-0.2-0.2-0.4c-1.5,0.4-2.7,1.1-3.9,2
									c0.1,0.2,0.2,0.4,0.3,0.5C106.5,187.7,107.7,187,109,186.3z M98.6,141.4c-0.1,0-0.2,0-0.3,0c0.1,1.7,0.3,3.4,0.4,5.1
									c0.1,0,0.3,0,0.4,0C99,144.8,98.8,143.1,98.6,141.4z M146.1,174.7c0,0.1,0,0.2,0.1,0.3c1.9-0.3,3.8-0.7,5.6-1
									c0-0.1,0-0.2-0.1-0.3C149.9,174.1,148,174.4,146.1,174.7z M120,180.4c0,0.1,0.1,0.2,0.1,0.3c1.4-0.5,2.8-1,4.2-1.6
									c-0.1-0.1-0.1-0.3-0.2-0.4C122.8,179.4,121.4,179.9,120,180.4z M141.9,176c0-0.1-0.1-0.3-0.1-0.4c-1.5,0.4-3,0.9-4.6,1.3
									c0.3,0.2,0.6,0.2,0.9,0.1C139.4,176.7,140.6,176.4,141.9,176z M99.8,180.9c-0.2-0.1-0.4-0.1-0.5-0.2
									c-0.2,0.6-0.3,1.2-0.5,1.8c0.2,0.1,0.3,0.1,0.5,0.1C99.4,182,99.6,181.4,99.8,180.9z M99.9,178c0.1,0,0.3,0.1,0.4,0.1
									c0.1-0.9,0.2-1.8,0.4-2.6c-0.1,0-0.2,0-0.3,0C100.3,176.3,100.1,177.1,99.9,178z M89.7,225.2c0.1,0.1,0.2,0.1,0.4,0.2
									c0.3-0.6,0.6-1.3,1-1.9c-0.1,0-0.1-0.1-0.2-0.1C90.5,224,90.1,224.6,89.7,225.2z"/>
							</g>
						</g>
					</g>
				</g>
			</g>
		</g>
	</g>
</g>
<g>
	<defs>
		<rect id="SVGID_00000096057132701138709490000006074443685697132461_" x="52" y="192.8" width="39" height="31"/>
	</defs>
	<clipPath id="SVGID_00000119096535969683858860000010695614077266456452_">
		<use xlink:href="#SVGID_00000096057132701138709490000006074443685697132461_"  style="overflow:visible;"/>
	</clipPath>
	<g style="clip-path:url(#SVGID_00000119096535969683858860000010695614077266456452_);">
		<g>
			<defs>
				
					<rect id="SVGID_00000084507853060310644750000009904446228692827579_" x="20.5" y="124.7" transform="matrix(0.5467 -0.8373 0.8373 0.5467 -123.5985 170.3056)" width="150" height="149.2"/>
			</defs>
			<clipPath id="SVGID_00000006687059184784631470000005012448828887846294_">
				<use xlink:href="#SVGID_00000084507853060310644750000009904446228692827579_"  style="overflow:visible;"/>
			</clipPath>
			<g style="clip-path:url(#SVGID_00000006687059184784631470000005012448828887846294_);">
				<g>
					<defs>
						
							<rect id="SVGID_00000096777036112690055130000010749402755357308827_" x="20.5" y="124.7" transform="matrix(0.5467 -0.8373 0.8373 0.5467 -123.5985 170.3056)" width="150" height="149.2"/>
					</defs>
					<clipPath id="SVGID_00000129918373753752177000000013404977986003525782_">
						<use xlink:href="#SVGID_00000096777036112690055130000010749402755357308827_"  style="overflow:visible;"/>
					</clipPath>
					<g style="clip-path:url(#SVGID_00000129918373753752177000000013404977986003525782_);">
						<g>
							<defs>
								
									<rect id="SVGID_00000114043477537080164820000000600787674200627623_" x="20.5" y="124.7" transform="matrix(0.5467 -0.8373 0.8373 0.5467 -123.5985 170.3056)" width="150" height="149.2"/>
							</defs>
							<clipPath id="SVGID_00000106850649247953135340000012410115861436263319_">
								<use xlink:href="#SVGID_00000114043477537080164820000000600787674200627623_"  style="overflow:visible;"/>
							</clipPath>
							<g style="clip-path:url(#SVGID_00000106850649247953135340000012410115861436263319_);">
								<path class="st5" d="M52.3,222.4c1.5-1.2,3.1-2.4,4.5-3.7c2.1-2,4.1-4.2,6.1-6.3c1.1-1.1,2.2-2.1,3.3-3.1
									c2.9-2.7,6.2-5,9.6-7c4.5-2.6,8.9-5.4,13.4-8.1c0.5-0.3,0.9-0.6,1.4-1c0.1,0.1,0.2,0.2,0.2,0.3c-0.2,0.2-0.5,0.5-0.8,0.7
									c-2.1,1.4-4.2,2.7-6.4,4.1c-2,1.3-4.1,2.6-6.1,4c-1.7,1.1-3.3,2.4-4.9,3.6c-0.6,0.4-1,1-1.6,1.5c-0.4,0.4-0.7,0.7-1.3,1.2
									c0-0.6-0.1-0.9-0.1-1.3c-0.1,0-0.2,0.1-0.3,0.1c-1.8,1.6-3.7,3.2-5.5,4.9c-0.5,0.5-0.8,1.2-1,1.9c-0.6,1.5-1.6,2.6-2.8,3.6
									c-0.9,0.7-1.6,1.7-2.5,2.4c-1.2,0.9-2.4,1.8-3.7,2.6c-0.4,0.2-1,0-1.6,0C52.3,222.7,52.3,222.5,52.3,222.4z"/>
							</g>
						</g>
					</g>
				</g>
			</g>
		</g>
	</g>
</g>
<g>
	<defs>
		<rect id="SVGID_00000119815193999743913330000001925876930388935346_" x="101" y="153.8" width="10" height="27"/>
	</defs>
	<clipPath id="SVGID_00000069381983315772063290000001871855737371295931_">
		<use xlink:href="#SVGID_00000119815193999743913330000001925876930388935346_"  style="overflow:visible;"/>
	</clipPath>
	<g style="clip-path:url(#SVGID_00000069381983315772063290000001871855737371295931_);">
		<g>
			<defs>
				
					<rect id="SVGID_00000002378481812016170160000007254985373618662314_" x="20.5" y="124.7" transform="matrix(0.5467 -0.8373 0.8373 0.5467 -123.5985 170.3056)" width="150" height="149.2"/>
			</defs>
			<clipPath id="SVGID_00000149368332273352348880000015931554585654079881_">
				<use xlink:href="#SVGID_00000002378481812016170160000007254985373618662314_"  style="overflow:visible;"/>
			</clipPath>
			<g style="clip-path:url(#SVGID_00000149368332273352348880000015931554585654079881_);">
				<g>
					<defs>
						
							<rect id="SVGID_00000008141507381346299200000012144790406434220987_" x="20.5" y="124.7" transform="matrix(0.5467 -0.8373 0.8373 0.5467 -123.5985 170.3056)" width="150" height="149.2"/>
					</defs>
					<clipPath id="SVGID_00000034060655703139515450000007964630204241279121_">
						<use xlink:href="#SVGID_00000008141507381346299200000012144790406434220987_"  style="overflow:visible;"/>
					</clipPath>
					<g style="clip-path:url(#SVGID_00000034060655703139515450000007964630204241279121_);">
						<g>
							<defs>
								
									<rect id="SVGID_00000103232051939250688210000001730500635946470800_" x="20.5" y="124.7" transform="matrix(0.5467 -0.8373 0.8373 0.5467 -123.5985 170.3056)" width="150" height="149.2"/>
							</defs>
							<clipPath id="SVGID_00000078747244239326115710000009275537410942781826_">
								<use xlink:href="#SVGID_00000103232051939250688210000001730500635946470800_"  style="overflow:visible;"/>
							</clipPath>
							<g style="clip-path:url(#SVGID_00000078747244239326115710000009275537410942781826_);">
								<path class="st5" d="M103.7,179.8l-0.4,0.6c-0.1-0.9-1.9-0.3-1.3-1.8c0.5-1.2,1.1-1.4,2.7-0.9c1.1-3.9,1.1-7.9,1.2-11.8
									c0-0.5,0.1-1.1,0.2-1.6c0.7-3.1,1.2-6.3,3.2-9c0.3-0.5,0.8-0.9,1.2-1.3c0.2,0.1,0.3,0.1,0.5,0.1c0,0.6,0.1,1.2-0.1,1.7
									c-0.7,1.6-1.7,3.1-2.4,4.7c-1,2.8-1.3,5.7-1.6,8.6c-0.2,2.9-0.5,5.7-0.8,8.6c-0.1,0.7-0.4,1.3-0.7,1.9
									c-0.2,0.4-0.5,0.7-0.8,1.1C104.3,180.4,104,180.1,103.7,179.8z"/>
							</g>
						</g>
					</g>
				</g>
			</g>
		</g>
	</g>
</g>
<g>
	<defs>
		<rect id="SVGID_00000083079001542415588270000014987188372296529561_" x="104" y="167.8" width="25" height="16"/>
	</defs>
	<clipPath id="SVGID_00000003064936269983485010000008020349956815767998_">
		<use xlink:href="#SVGID_00000083079001542415588270000014987188372296529561_"  style="overflow:visible;"/>
	</clipPath>
	<g style="clip-path:url(#SVGID_00000003064936269983485010000008020349956815767998_);">
		<g>
			<defs>
				
					<rect id="SVGID_00000114041567477779011110000007537432819237107592_" x="20.5" y="124.7" transform="matrix(0.5467 -0.8373 0.8373 0.5467 -123.5985 170.3056)" width="150" height="149.2"/>
			</defs>
			<clipPath id="SVGID_00000005239790267622178970000010248486659708495530_">
				<use xlink:href="#SVGID_00000114041567477779011110000007537432819237107592_"  style="overflow:visible;"/>
			</clipPath>
			<g style="clip-path:url(#SVGID_00000005239790267622178970000010248486659708495530_);">
				<g>
					<defs>
						
							<rect id="SVGID_00000115488540857312323160000016166121727703620263_" x="20.5" y="124.7" transform="matrix(0.5467 -0.8373 0.8373 0.5467 -123.5985 170.3056)" width="150" height="149.2"/>
					</defs>
					<clipPath id="SVGID_00000030471049290987125110000015290687790934113726_">
						<use xlink:href="#SVGID_00000115488540857312323160000016166121727703620263_"  style="overflow:visible;"/>
					</clipPath>
					<g style="clip-path:url(#SVGID_00000030471049290987125110000015290687790934113726_);">
						<g>
							<defs>
								
									<rect id="SVGID_00000008844907142529441200000007451222930371390901_" x="20.5" y="124.7" transform="matrix(0.5467 -0.8373 0.8373 0.5467 -123.5985 170.3056)" width="150" height="149.2"/>
							</defs>
							<clipPath id="SVGID_00000183965790575502499890000009834870927470776482_">
								<use xlink:href="#SVGID_00000008844907142529441200000007451222930371390901_"  style="overflow:visible;"/>
							</clipPath>
							<g style="clip-path:url(#SVGID_00000183965790575502499890000009834870927470776482_);">
								<path class="st5" d="M108.3,179.8c0.1,1,0.3,1.8,0.3,2.6c0,0.3-1,0.8-1.1,0.6c-0.5-0.4-0.9-1-1.4-1.7c0,0-0.2,0.1-0.4,0.1
									c-0.2,0-0.5,0-0.7-0.1c-0.1-0.1,0-0.5,0.1-0.6c1.1-0.6,2-1.4,2.1-2.9c0.7,1.4,1.4,0.8,2.2,0.5c2-0.8,4.1-1.4,6.1-2.2
									c1.6-0.6,3.3-0.9,4.7-1.7c2-1.2,4-2.4,5.5-4.3c0.5-0.7,1.3-1.2,2-1.7c0.2-0.2,0.8-0.2,0.9,0c0.2,0.2,0.2,0.7,0.1,0.9
									c-0.4,0.7-0.9,1.3-1.5,1.9c-2.1,1.9-4.6,3.1-7.1,4.2c-3,1.4-6.4,2-9.4,3.3C109.7,179.2,108.9,179.6,108.3,179.8z"/>
							</g>
						</g>
					</g>
				</g>
			</g>
		</g>
	</g>
</g>
<g>
	<defs>
		<rect id="SVGID_00000116935902076715920460000006577169198728073633_" x="101" y="179.8" width="2" height="2"/>
	</defs>
	<clipPath id="SVGID_00000181064705559348217100000003303223988033201556_">
		<use xlink:href="#SVGID_00000116935902076715920460000006577169198728073633_"  style="overflow:visible;"/>
	</clipPath>
	<g style="clip-path:url(#SVGID_00000181064705559348217100000003303223988033201556_);">
		<g>
			<defs>
				
					<rect id="SVGID_00000061438634757308617810000012397164393960561556_" x="20.5" y="124.7" transform="matrix(0.5467 -0.8373 0.8373 0.5467 -123.5985 170.3056)" width="150" height="149.2"/>
			</defs>
			<clipPath id="SVGID_00000145781387815577181010000007520081487573565096_">
				<use xlink:href="#SVGID_00000061438634757308617810000012397164393960561556_"  style="overflow:visible;"/>
			</clipPath>
			<g style="clip-path:url(#SVGID_00000145781387815577181010000007520081487573565096_);">
				<g>
					<defs>
						
							<rect id="SVGID_00000050642698122049775280000006804851922109855158_" x="20.5" y="124.7" transform="matrix(0.5467 -0.8373 0.8373 0.5467 -123.5985 170.3056)" width="150" height="149.2"/>
					</defs>
					<clipPath id="SVGID_00000055703416277494319220000009435884631333747595_">
						<use xlink:href="#SVGID_00000050642698122049775280000006804851922109855158_"  style="overflow:visible;"/>
					</clipPath>
					<g style="clip-path:url(#SVGID_00000055703416277494319220000009435884631333747595_);">
						<g>
							<defs>
								
									<rect id="SVGID_00000103229517115889777120000003849744167919632306_" x="20.5" y="124.7" transform="matrix(0.5467 -0.8373 0.8373 0.5467 -123.5985 170.3056)" width="150" height="149.2"/>
							</defs>
							<clipPath id="SVGID_00000137835966913186917880000000756174551841891718_">
								<use xlink:href="#SVGID_00000103229517115889777120000003849744167919632306_"  style="overflow:visible;"/>
							</clipPath>
							<g style="clip-path:url(#SVGID_00000137835966913186917880000000756174551841891718_);">
								<path class="st5" d="M102.2,181.7c-0.4-0.1-0.8-0.1-1.1-0.2c0,0,0.1-0.5,0.1-0.7c0.4-0.1,0.9-0.1,1.6-0.2
									C102.5,181,102.3,181.4,102.2,181.7z"/>
							</g>
						</g>
					</g>
				</g>
			</g>
		</g>
	</g>
</g>
<g>
	<defs>
		<rect id="SVGID_00000037665370195671930180000001729423117605072552_" x="48" y="167.8" width="4" height="2"/>
	</defs>
	<clipPath id="SVGID_00000064353301937876723380000003426465148136637590_">
		<use xlink:href="#SVGID_00000037665370195671930180000001729423117605072552_"  style="overflow:visible;"/>
	</clipPath>
	<g style="clip-path:url(#SVGID_00000064353301937876723380000003426465148136637590_);">
		<g>
			<defs>
				
					<rect id="SVGID_00000060030786565163956320000012330155174446114711_" x="20.5" y="124.7" transform="matrix(0.5467 -0.8373 0.8373 0.5467 -123.5985 170.3056)" width="150" height="149.2"/>
			</defs>
			<clipPath id="SVGID_00000178920858568786416250000003412512647108280721_">
				<use xlink:href="#SVGID_00000060030786565163956320000012330155174446114711_"  style="overflow:visible;"/>
			</clipPath>
			<g style="clip-path:url(#SVGID_00000178920858568786416250000003412512647108280721_);">
				<g>
					<defs>
						
							<rect id="SVGID_00000124149280950897484920000012740527026594212020_" x="20.5" y="124.7" transform="matrix(0.5467 -0.8373 0.8373 0.5467 -123.5985 170.3056)" width="150" height="149.2"/>
					</defs>
					<clipPath id="SVGID_00000180343351534426905350000013012207884689446067_">
						<use xlink:href="#SVGID_00000124149280950897484920000012740527026594212020_"  style="overflow:visible;"/>
					</clipPath>
					<g style="clip-path:url(#SVGID_00000180343351534426905350000013012207884689446067_);">
						<g>
							<defs>
								
									<rect id="SVGID_00000004543977583347773160000006603776006533087874_" x="20.5" y="124.7" transform="matrix(0.5467 -0.8373 0.8373 0.5467 -123.5985 170.3056)" width="150" height="149.2"/>
							</defs>
							<clipPath id="SVGID_00000175284067488775407340000003382885608643907732_">
								<use xlink:href="#SVGID_00000004543977583347773160000006603776006533087874_"  style="overflow:visible;"/>
							</clipPath>
							<g style="clip-path:url(#SVGID_00000175284067488775407340000003382885608643907732_);">
								<path class="st5" d="M51.5,168.5c-0.9,0.2-1.8,0.4-2.7,0.6c0-0.2-0.1-0.3-0.1-0.5c0.9-0.2,1.8-0.4,2.6-0.7
									C51.4,168.1,51.4,168.3,51.5,168.5z"/>
							</g>
						</g>
					</g>
				</g>
			</g>
		</g>
	</g>
</g>
<g>
	<defs>
		<rect id="SVGID_00000115486641612780237140000000395068188184318607_" x="65" y="208.8" width="3" height="3"/>
	</defs>
	<clipPath id="SVGID_00000033369464095640741590000008411477343179597247_">
		<use xlink:href="#SVGID_00000115486641612780237140000000395068188184318607_"  style="overflow:visible;"/>
	</clipPath>
	<g style="clip-path:url(#SVGID_00000033369464095640741590000008411477343179597247_);">
		<g>
			<defs>
				
					<rect id="SVGID_00000086667548607197357690000008169189687694298769_" x="20.5" y="124.7" transform="matrix(0.5467 -0.8373 0.8373 0.5467 -123.5985 170.3056)" width="150" height="149.2"/>
			</defs>
			<clipPath id="SVGID_00000031922854166896185690000004972480184970328735_">
				<use xlink:href="#SVGID_00000086667548607197357690000008169189687694298769_"  style="overflow:visible;"/>
			</clipPath>
			<g style="clip-path:url(#SVGID_00000031922854166896185690000004972480184970328735_);">
				<g>
					<defs>
						
							<rect id="SVGID_00000132781104868922891470000004839589437661907878_" x="20.5" y="124.7" transform="matrix(0.5467 -0.8373 0.8373 0.5467 -123.5985 170.3056)" width="150" height="149.2"/>
					</defs>
					<clipPath id="SVGID_00000104682155321132872490000003596982345835650975_">
						<use xlink:href="#SVGID_00000132781104868922891470000004839589437661907878_"  style="overflow:visible;"/>
					</clipPath>
					<g style="clip-path:url(#SVGID_00000104682155321132872490000003596982345835650975_);">
						<g>
							<defs>
								
									<rect id="SVGID_00000177472073606973534810000014018423047882578343_" x="20.5" y="124.7" transform="matrix(0.5467 -0.8373 0.8373 0.5467 -123.5985 170.3056)" width="150" height="149.2"/>
							</defs>
							<clipPath id="SVGID_00000057841732955212125630000017860011015221213315_">
								<use xlink:href="#SVGID_00000177472073606973534810000014018423047882578343_"  style="overflow:visible;"/>
							</clipPath>
							<g style="clip-path:url(#SVGID_00000057841732955212125630000017860011015221213315_);">
								<path class="st5" d="M65.9,210.9c0.5-0.6,1.1-1.1,1.6-1.7c-0.1,1-0.4,1.7-1.3,2C66.1,211.1,66,211,65.9,210.9z"/>
							</g>
						</g>
					</g>
				</g>
			</g>
		</g>
	</g>
</g>
<g>
	<defs>
		<rect id="SVGID_00000005238951414477421400000017355303634447716518_" x="109" y="231.8" width="6" height="31"/>
	</defs>
	<clipPath id="SVGID_00000176745663383523646660000006493044717473490594_">
		<use xlink:href="#SVGID_00000005238951414477421400000017355303634447716518_"  style="overflow:visible;"/>
	</clipPath>
	<g style="clip-path:url(#SVGID_00000176745663383523646660000006493044717473490594_);">
		<g>
			<defs>
				
					<rect id="SVGID_00000169518432132642970260000012064359812255727529_" x="20.5" y="124.7" transform="matrix(0.5467 -0.8373 0.8373 0.5467 -123.5985 170.3056)" width="150" height="149.2"/>
			</defs>
			<clipPath id="SVGID_00000097470860470858607780000011582132437554048916_">
				<use xlink:href="#SVGID_00000169518432132642970260000012064359812255727529_"  style="overflow:visible;"/>
			</clipPath>
			<g style="clip-path:url(#SVGID_00000097470860470858607780000011582132437554048916_);">
				<g>
					<defs>
						
							<rect id="SVGID_00000160912183072151012680000003483284671767948217_" x="20.5" y="124.7" transform="matrix(0.5467 -0.8373 0.8373 0.5467 -123.5985 170.3056)" width="150" height="149.2"/>
					</defs>
					<clipPath id="SVGID_00000008865895013396787640000005302446717873122718_">
						<use xlink:href="#SVGID_00000160912183072151012680000003483284671767948217_"  style="overflow:visible;"/>
					</clipPath>
					<g style="clip-path:url(#SVGID_00000008865895013396787640000005302446717873122718_);">
						<g>
							<defs>
								
									<rect id="SVGID_00000054224139647380472230000003191687306332950197_" x="20.5" y="124.7" transform="matrix(0.5467 -0.8373 0.8373 0.5467 -123.5985 170.3056)" width="150" height="149.2"/>
							</defs>
							<clipPath id="SVGID_00000069394094072529136960000011024927139685097897_">
								<use xlink:href="#SVGID_00000054224139647380472230000003191687306332950197_"  style="overflow:visible;"/>
							</clipPath>
							<g style="clip-path:url(#SVGID_00000069394094072529136960000011024927139685097897_);">
								<path class="st5" d="M109.8,232.6c0.2,0.4,0.5,0.8,0.6,1.2c1.1,4.8,2.2,9.5,3.1,14.3c0.5,2.5,0.4,5.1,0.5,7.7
									c0.1,1.8,0.1,3.6,0.2,5.5c0,0.4-0.1,0.8-0.4,1.2c-0.3-3.3-0.5-6.6-0.9-9.8c-0.4-3.4-0.8-6.7-1.4-10.1
									c-0.5-3.3-1.7-6.4-2.1-9.7C109.5,232.7,109.6,232.7,109.8,232.6z"/>
							</g>
						</g>
					</g>
				</g>
			</g>
		</g>
	</g>
</g>
<g>
	<defs>
		<rect id="SVGID_00000159440044661297108190000011740235269053672380_" x="87" y="200.8" width="3" height="5"/>
	</defs>
	<clipPath id="SVGID_00000103965130506266690900000000968937041870367132_">
		<use xlink:href="#SVGID_00000159440044661297108190000011740235269053672380_"  style="overflow:visible;"/>
	</clipPath>
	<g style="clip-path:url(#SVGID_00000103965130506266690900000000968937041870367132_);">
		<g>
			<defs>
				
					<rect id="SVGID_00000036959013459930959450000007722307485216460459_" x="20.5" y="124.7" transform="matrix(0.5467 -0.8373 0.8373 0.5467 -123.5985 170.3056)" width="150" height="149.2"/>
			</defs>
			<clipPath id="SVGID_00000103266862250617048430000012306144266177586314_">
				<use xlink:href="#SVGID_00000036959013459930959450000007722307485216460459_"  style="overflow:visible;"/>
			</clipPath>
			<g style="clip-path:url(#SVGID_00000103266862250617048430000012306144266177586314_);">
				<g>
					<defs>
						
							<rect id="SVGID_00000023262409638632168270000014025623882825086860_" x="20.5" y="124.7" transform="matrix(0.5467 -0.8373 0.8373 0.5467 -123.5985 170.3056)" width="150" height="149.2"/>
					</defs>
					<clipPath id="SVGID_00000168834706363731129160000008783485617276526471_">
						<use xlink:href="#SVGID_00000023262409638632168270000014025623882825086860_"  style="overflow:visible;"/>
					</clipPath>
					<g style="clip-path:url(#SVGID_00000168834706363731129160000008783485617276526471_);">
						<g>
							<defs>
								
									<rect id="SVGID_00000088094711130870896970000009856587699309356203_" x="20.5" y="124.7" transform="matrix(0.5467 -0.8373 0.8373 0.5467 -123.5985 170.3056)" width="150" height="149.2"/>
							</defs>
							<clipPath id="SVGID_00000067958425284735595790000017346816047810442902_">
								<use xlink:href="#SVGID_00000088094711130870896970000009856587699309356203_"  style="overflow:visible;"/>
							</clipPath>
							<g style="clip-path:url(#SVGID_00000067958425284735595790000017346816047810442902_);">
								<path class="st5" d="M87.9,204.9c0.8-1.1,1.3-2.2,0-3.4c0.2-0.1,0.3-0.2,0.5-0.2c0.5,0.5,1.6,1.1,1.5,1.5
									c-0.2,0.9-0.9,1.6-1.4,2.4C88.2,205,88.1,205,87.9,204.9z"/>
							</g>
						</g>
					</g>
				</g>
			</g>
		</g>
	</g>
</g>
<g>
	<g>
		<g>
			<path d="M130.3,72c2.2,2.1,2.9,4.6,2,7.5c-0.2,0.5-0.4,1-0.6,1.5c-0.5,0.8-1,1.6-1.6,2.4c-0.6,0.7-1.2,1.4-1.9,2.1
				c-0.4,0.5-1,0.6-1.6,0.5c-0.2,0-0.3-0.1-0.3-0.3c0-0.1,0-0.3,0.1-0.4c1.1-1.1,2.1-2.2,2.9-3.5c0.6-0.9,1-1.8,1.3-2.8
				c0.7-2.7-0.1-4.9-2.2-6.7c-1-0.8-2.2-1.4-3.4-1.7c-1.2-0.3-2.4-0.5-3.6-0.6c-1.2-0.1-2.4-0.1-3.6,0c-1.8,0.1-3.7,0.3-5.5,0.6
				c-1.8,0.3-3.6,0.7-5.4,1.1c-2.3,0.6-4.6,1.3-6.9,2.1c-2.2,0.8-4.4,1.8-6.5,3c-2,1.1-3.9,2.4-5.7,4c-1.6,1.4-2.8,3-3.8,4.8
				c-1.3,2.4-1.2,4.8,0.3,7.1c0.9,1.4,2.1,2.6,3.4,3.7c2.1,1.7,4.2,3.2,6.5,4.6c1.9,1.1,3.8,2.3,5.7,3.4c1.3,0.7,2.5,1.5,3.8,2.2
				c0.9,0.5,1.8,1.1,2.6,1.6c0.9,0.6,1.7,1.2,2.5,1.8c0.5,0.4,1,0.5,1.6,0.3c2-0.6,4.1-1,6.2-1.3c0.1,0,0.1,0,0.2,0
				c0.5-0.1,0.9-0.1,1.4,0c0.1,0,0.2,0.1,0.3,0.2c0.1,0.1,0.1,0.2,0.1,0.3c0,0.1,0,0.3-0.1,0.3c-0.1,0.1-0.2,0.1-0.3,0.1
				c-0.7,0-1.5,0.1-2.1,0.2c-0.7,0.1-1.4,0.3-2,0.5c-0.6,0.1-1.1,0.3-1.6,0.4c-0.1,0-0.1,0-0.2,0c-0.2,0-0.5,0.1-0.8,0.2
				c-0.2,0.1-0.5,0.2-0.6,0.4c0.1,0.3,0.3,0.6,0.6,0.8c0.1,0.1,0.2,0.2,0.3,0.4c0.4,0.6,0.8,1.1,1.1,1.8c0.3,0.6,0.6,1.2,0.7,1.9
				c0.4,1.8-0.2,3.1-1.7,4c-0.5,0.3-1,0.5-1.6,0.8c-2,0.7-4,1-6.1,0.9c-0.8-0.1-1.6-0.3-2.3-0.6c-1-0.5-1.6-1.2-1.9-2.1
				c-0.3-0.9-0.2-1.9,0.2-2.8c0.3-0.6,0.8-1.2,1.3-1.6c0.7-0.6,1.4-1.1,2.1-1.6c0.8-0.5,1.5-0.9,2.3-1.3c0.3-0.2,0.7-0.3,1-0.5
				c0.2-0.1,0.3-0.2,0.5-0.3c0-0.2,0-0.3-0.1-0.4c-0.1-0.1-0.2-0.2-0.3-0.2c0,0-0.1,0-0.1-0.1c-1.4-1.1-2.8-2-4.3-2.9
				c-1.8-1.1-3.6-2.1-5.5-3.2c-0.8-0.4-1.5-0.9-2.3-1.3c-2.6-1.5-5.2-3.2-7.6-5c-1.5-1.1-2.9-2.4-4.1-3.8c-0.6-0.7-1.1-1.5-1.5-2.4
				c-0.9-1.8-1-3.7-0.3-5.6c0.4-1,0.8-1.9,1.4-2.7c0.6-0.8,1.2-1.6,2-2.4c1.6-1.6,3.3-3,5.3-4.2c3.2-2,6.6-3.5,10.1-4.7
				c4.4-1.5,9-2.5,13.6-3.2c1.6-0.2,3.2-0.3,4.8-0.4c1.6,0,3.2,0.1,4.8,0.3c1,0.1,1.9,0.3,2.8,0.6c0.9,0.3,1.8,0.7,2.6,1.2
				C129.4,71.3,129.8,71.6,130.3,72z M109.1,112.7c-0.3-0.3-0.6-0.3-0.9-0.1c-0.9,0.4-1.8,0.8-2.6,1.3c-0.8,0.5-1.6,1.1-2.4,1.7
				c-0.4,0.3-0.7,0.8-1,1.2c-0.5,1-0.6,1.9-0.2,2.7c0.4,0.8,1.1,1.3,2.2,1.5c0.2,0,0.5,0.1,0.7,0.1c0.1,0,0.1,0,0.2,0
				c1.6,0,3.1-0.4,4.5-1c1.7-0.7,2.3-1.9,1.8-3.7c-0.2-0.7-0.5-1.4-0.9-2C110,113.8,109.6,113.3,109.1,112.7z"/>
		</g>
	</g>
</g>
<g>
	<g>
		<g>
			<path d="M126.4,109.1c0.1-0.1,0.2,0,0.2,0.4c0,0.4-0.4,1-1.1,1.7c-0.7,0.7-1.5,1-2.3,1c-0.2,0-0.3,0-0.4,0
				c-0.1,0-0.2,0.1-0.3,0.3c-0.1,0.1-0.2,0.3-0.3,0.4c0,0,0,0,0,0c-0.5,0.5-1,0.9-1.7,1c-0.6,0.2-1.3,0.1-1.8-0.2
				c-0.6-0.3-1-0.8-1.2-1.5c-0.2-0.7-0.2-1.3,0-2c0.1-0.6,0.3-1.1,0.6-1.6c0.4-0.7,0.8-1.2,1.4-1.4s1.2-0.4,1.9-0.5
				c1.1-0.1,1.7,0.4,2,1.5c0.2,0.6,0.2,1.2,0.1,1.9c0,0.1,0,0.3-0.1,0.4c0,0.1-0.1,0.2-0.1,0.3c0,0.3,0.1,0.5,0.4,0.5
				C124.6,111.1,125.5,110.4,126.4,109.1z M120.1,113c0.6-0.2,0.9-0.7,1.1-1.3c-0.9-0.6-1.5-1.4-1.8-2.5c-0.3,0.5-0.5,1.1-0.5,1.8
				c-0.1,0.7,0,1.2,0.2,1.7C119.3,113.1,119.6,113.2,120.1,113z M121.6,110.5c0.1-0.2,0.2-0.5,0.2-0.8c0-0.3,0-0.6,0-1
				c-0.1-0.3-0.1-0.6-0.2-0.7c-0.1-0.2-0.2-0.2-0.3-0.2c-0.2,0.2-0.3,0.5-0.3,0.8c0,0.3,0,0.7,0.2,1
				C121.2,110.1,121.4,110.3,121.6,110.5z"/>
		</g>
	</g>
</g>
<g>
	<g>
		<g>
			<path d="M136.8,109.7c0.3-0.2,0.5-0.3,0.6-0.2c0.1,0.1,0,0.3-0.2,0.6c-0.7,0.8-1.5,1.6-2.6,2.3c-1,0.7-2,1.2-3.1,1.5
				c-0.7,0.2-1.4,0.4-2.1,0.4c-0.5,0-1-0.1-1.6-0.2c-1.1-0.4-1.8-1.1-2-2.4c-0.1-0.7,0-1.3,0.1-2c0.2-0.7,0.5-1.3,1-1.8
				c0.5-0.5,1-0.9,1.7-1.2c0.6-0.2,1.3-0.3,1.9-0.3c0.7,0.1,1.2,0.3,1.6,0.6c0.1,0.1,0.1,0.2,0.1,0.3c0,0.1,0,0.2-0.1,0.3
				c-0.1,0.3-0.2,0.5-0.4,0.4c-0.2,0-0.4-0.1-0.7-0.2c-0.2-0.1-0.4-0.2-0.6-0.3c-0.2-0.1-0.4-0.1-0.7-0.1c-0.7,0.1-1.2,0.5-1.7,1.1
				c-0.4,0.5-0.6,1.1-0.7,1.7c-0.1,0.6-0.1,1.2,0.2,1.7c0.3,0.5,0.7,0.8,1.3,0.9c0.6,0.1,1.3,0,2.1-0.2c0.8-0.2,1.6-0.5,2.3-0.9
				c0.8-0.4,1.5-0.8,2.1-1.1C136.2,110.4,136.6,110,136.8,109.7z"/>
		</g>
	</g>
</g>
<g>
	<g>
		<g>
			<path d="M142.7,110.7c-0.2,0.5-0.6,1-1.2,1.6c-0.6,0.6-1.2,1-2,1.1c-0.7,0.2-1.4-0.1-2.1-0.8c-0.2-0.3-0.4-0.6-0.6-1
				c-0.1-0.4-0.2-0.8-0.1-1.1c0-0.1,0-0.2,0-0.4c0-0.4,0-0.8,0-1.3c0-0.5,0.1-1,0.2-1.4c0.1-0.4,0.3-0.7,0.6-0.8
				c0.7-0.2,1.1,0.1,1.2,0.8c0,0.2,0,0.4,0,0.7c0,0.1,0,0.2,0,0.3c0,0.3,0,0.6,0,1c0,0.2,0,0.5,0,0.8c0,1.1,0.2,1.8,0.7,2
				c0.5,0.2,1.1,0,1.8-0.7c0.7-0.7,1.1-1.2,1.3-1.7c0.2-0.4,0.4-0.5,0.5-0.3C143,109.8,143,110.2,142.7,110.7z M138.7,104.3
				c-0.1,0.1-0.2,0.1-0.4,0.2c-0.1,0-0.3,0-0.4,0c-0.1-0.1-0.1-0.2-0.2-0.3c0-0.1,0-0.2,0-0.4c0,0,0-0.1,0-0.1c0-0.1,0-0.3,0.1-0.4
				c0.1-0.4,0.5-0.5,1-0.5c0.2,0,0.3,0.1,0.4,0.2c0.1,0.1,0.1,0.2,0.1,0.4C139.2,103.7,139,104.1,138.7,104.3z"/>
		</g>
	</g>
</g>
<g>
	<g>
		<g>
			<path d="M155.5,109.4c-0.2,0.6-0.6,1.4-1.2,2.2c-0.6,0.8-1.4,1.4-2.3,1.6c-0.9,0.2-1.8,0.2-2.4-0.1c-0.7-0.3-1.1-1.1-1.1-2.5
				c-0.8,1.5-1.5,2.5-2.2,2.9c-0.7,0.4-1.4,0.6-2.2,0.5c-0.9-0.1-1.4-0.5-1.8-1s-0.4-1.1-0.3-1.8c0.1-0.7,0.3-1.4,0.6-2
				c0.2-0.5,0.6-0.9,1-1.3c0.5-0.4,0.9-0.7,1.4-1c0.6-0.3,1.2-0.4,1.8-0.4c0.6,0,1.3,0.2,2,0.6c0,0,0,0,0,0c0-0.1,0-0.1,0-0.2
				c0-0.1,0.1-0.2,0.2-0.2c0.2-0.2,0.5-0.2,0.8-0.2c0.3,0,0.6,0.2,0.7,0.5c0,0.4,0,0.9-0.1,1.6c-0.3,1.4-0.3,2.4,0,3
				c0.3,0.6,0.7,0.9,1.3,0.8c0.6,0,1.5-0.7,2.5-1.9C155.3,109.1,155.7,108.8,155.5,109.4z M144.1,112.7c0.3,0.2,0.7,0.2,1.2-0.1
				c0.5-0.3,0.9-0.8,1.3-1.4c0.4-0.6,0.8-1.2,1.1-1.8c0.3-0.6,0.5-1,0.5-1.3c-0.9-0.5-1.6-0.5-2.2-0.2c-0.6,0.3-1.1,0.8-1.5,1.5
				c-0.4,0.7-0.6,1.4-0.7,2C143.8,112,143.9,112.5,144.1,112.7z"/>
		</g>
	</g>
</g>
<g>
	<g>
		<g>
			<path d="M163,110c0.1-0.3,0.3-0.5,0.4-0.5c0.2,0,0.2,0.2,0.2,0.5c-0.2,0.8-0.6,1.5-0.9,2.2c-0.4,0.7-0.8,1.4-1.5,1.9
				c-0.5,0.5-1,0.8-1.6,0.9c-0.9,0.1-1.6,0-2.2-0.3c-0.6-0.3-1-0.8-1.3-1.4c-0.3-0.6-0.6-1.3-0.8-2c-0.2-0.7-0.3-1.5-0.3-2.1
				c-0.1-1.3-0.2-3-0.3-5.2c-0.1-2.1,0-4.4,0.1-6.8c0.1-2.4,0.3-4.6,0.7-6.6c0.4-2,0.9-3.6,1.6-4.7c0.4-0.5,0.9-0.8,1.4-0.8
				c0.5,0,1,0.2,1.5,0.8c0.3,0.4,0.5,0.8,0.6,1.2c0.1,0.4,0.2,0.9,0.3,1.3c0.2,1.6,0.1,3.2-0.1,5c-0.2,1.7-0.5,3.6-0.9,5.5
				c-0.4,2-0.9,3.7-1.5,5.2c-0.6,1.5-1.1,2.7-1.4,3.6c-0.2,0.4-0.3,0.9-0.2,1.6c0.1,0.8,0.2,1.6,0.4,2.4c0.2,0.8,0.5,1.5,1,2
				c0.4,0.4,0.8,0.5,1.3,0.4c0.5-0.2,1-0.5,1.4-1c0.5-0.5,0.9-1,1.3-1.6C162.5,111,162.8,110.4,163,110z M156.9,98.2
				c-0.1,0.5-0.1,1.3-0.1,2.3c0,1-0.1,2.1-0.1,3.1c0,1.2-0.1,2.1-0.1,2.8c0.4-0.9,0.8-2.1,1.3-3.7c0.5-1.6,1-3.5,1.4-5.7
				c0.4-2.2,0.7-4.6,0.8-7.1c-0.1-1.5-0.3-2.5-0.5-3c-0.3-0.5-0.6-0.6-0.9-0.1c-0.3,0.4-0.6,1.4-0.8,2.8c-0.3,2.3-0.5,4.7-0.7,7
				C156.9,97.1,156.9,97.6,156.9,98.2z"/>
		</g>
	</g>
</g>
<g>
	<g>
		<g>
			<path d="M204.1,108.5c0.2,0,0.2,0.1,0.2,0.4c0,0.3-0.1,0.4-0.3,0.4c-0.2,0-0.4,0.1-0.5,0.3c-0.2,0.1-0.2,0.3-0.2,0.5
				c0,1.6-0.2,3.2-0.6,4.7c-0.5,1.5-1.1,3-1.8,4.4c-1.5,2.9-3.4,5.5-5.6,7.8c-2.2,2.3-4.8,4.2-7.7,5.8c-1.6,0.8-3.3,1.5-5,1.9
				c-1.7,0.4-3.5,0.6-5.3,0.5c-1.5-0.1-3-0.5-4.3-1.2c-1.6-1-2.7-2.2-3.2-3.7c-0.5-1.5-0.4-3.1,0.3-4.9c0.8-1.7,1.9-3.2,3.5-4.7
				c1.6-1.4,3.5-2.8,5.6-4c2.1-1.2,4.3-2.3,6.6-3.2c2.3-0.9,4.5-1.7,6.7-2.4c2.1-0.7,4-1.1,5.7-1.5c0.5-0.1,0.9-0.2,1.3-0.3
				c0.5-0.1,0.9-0.2,1.4-0.3c0.4-0.1,0.5-0.3,0.4-0.6c-0.4-1.6-1.2-3-2.3-4.2c-0.8-0.8-1.8-1.5-2.8-2.1c-1-0.6-2-1.1-3.1-1.4
				c-3.3-1.2-6.7-1.8-10.2-2c-0.2,0-0.5,0-0.8,0c-0.3,0-0.4,0.2-0.4,0.5c0,0.3-0.1,0.7-0.1,1c0,2.6,0,5.3,0,8c0,1.2,0,2.3,0,3.5
				c0,0.1,0,0.2,0,0.2c0,0.2,0,0.3,0,0.5c-0.1,0.8-0.5,1-1.2,0.8c-0.3-0.1-0.4-0.3-0.4-0.5c0-0.4,0-0.8,0-1.2c0-2.4,0-4.8,0-7.2
				c0-1.2,0-2.4,0-3.6c0-0.1,0-0.2,0-0.3c0-0.3,0-0.6,0-0.9c0-0.3,0-0.5-0.1-0.6c-0.1-0.1-0.3-0.2-0.6-0.2c-0.1,0-0.3,0-0.4,0
				c-0.3,0-0.6,0-1-0.1c-0.3,0-0.5-0.2-0.5-0.4c-0.1-0.3,0-0.6,0.2-0.8c0.3-0.3,0.7-0.5,1.1-0.8c0.2-0.1,0.3-0.2,0.4-0.3
				c0.3-0.2,0.5-0.3,0.6-0.4c0.1-0.1,0.2-0.3,0.2-0.4c0-0.2,0-0.4,0-0.7c0-0.2,0-0.4,0-0.7c0-1.9,0-3.8,0-5.8c0-1.1,0-2.1,0-3.2
				c0,0,0,0,0-0.1c0-0.4,0-0.7,0-1.1c0-0.5,0.3-0.7,0.8-0.7c0.5,0,0.8,0.2,0.8,0.6c0,0.4,0,0.9,0,1.3c0,1.2,0,2.3,0,3.5
				c0,1.4,0,2.8,0,4.2c0,0.1,0,0.2,0,0.3c0,0.4,0,0.8,0.2,1.3c1.1-0.6,2.5-1.5,4-2.5c1.6-1,3.2-2,4.8-3.2c1.6-1.1,3.1-2.3,4.4-3.4
				c1.3-1.1,2.1-2.2,2.6-3.1c0.5-1.1,0.3-2-0.7-2.7c-1.2-0.8-2.8-1.3-4.8-1.4c-1.9-0.1-4,0.1-6.2,0.6c-2.2,0.5-4.2,1.2-6,2
				c-1.9,0.9-3.3,1.9-4.4,3c-0.3,0.4-0.6,0.8-0.9,1.3c-0.3,0.5-0.5,1-0.6,1.5c-0.1,0.3-0.3,0.5-0.7,0.5c-0.3,0-0.6-0.1-0.9-0.3
				c-0.1-0.2-0.2-0.3-0.1-0.5c0.2-0.6,0.4-1.1,0.8-1.6c1.2-1.5,2.9-2.9,5.1-4c2.2-1.2,4.6-2,7.2-2.6c2.6-0.6,5-0.8,7.4-0.7
				c2.3,0.1,4.2,0.6,5.6,1.6c1.5,1,1.8,2.3,0.9,3.8c-0.4,0.8-1.1,1.6-1.9,2.4c-0.8,0.8-1.7,1.6-2.6,2.3c-0.9,0.7-1.7,1.3-2.5,1.9
				c-1.3,0.9-2.6,1.9-4,2.7c-1.4,0.9-2.7,1.7-4.1,2.5c0,0-0.1,0-0.1,0.1c-0.7,0.4-1.4,0.8-2,1.2c-0.5,0.4-0.6,0.8-0.4,1.4
				c0,0.1,0.1,0.1,0.1,0.2c0.1,0.1,0.1,0.1,0.2,0.1c0.3,0.1,0.6,0.1,0.8,0.1c0,0,0,0,0.1,0c3.7,0.1,7.2,0.7,10.7,1.9
				c1.9,0.6,3.7,1.5,5.4,2.7c1,0.7,1.8,1.5,2.5,2.4c0.7,0.9,1.2,2,1.5,3.1c0.1,0.4,0.2,0.6,0.4,0.7
				C203.4,108.5,203.7,108.5,204.1,108.5z M201.4,111.4c0.1-0.7,0-1.1-0.2-1.3c-0.2-0.2-0.6-0.1-1.3,0c-1.7,0.3-3.5,0.8-5.6,1.4
				c-2.1,0.6-4.2,1.4-6.4,2.2c-2.2,0.9-4.3,1.9-6.3,3c-2,1.1-3.8,2.4-5.4,3.8c-1.5,1.4-2.7,2.9-3.5,4.6c-0.6,1.3-0.8,2.5-0.8,3.6
				c0.1,1.1,0.3,2.1,0.9,2.9c0.5,0.8,1.2,1.4,2.1,1.7c1.1,0.4,2.2,0.7,3.4,0.7c0.1,0,0.2,0,0.2,0c0.2,0,0.3,0,0.5,0
				c2.2-0.2,4.3-0.8,6.3-1.8c3.6-1.8,6.7-4.1,9.2-6.9c2.5-2.8,4.5-6.1,5.9-9.8C200.9,114.2,201.3,112.8,201.4,111.4z"/>
		</g>
	</g>
</g>
<g>
	<g>
		<g>
			<path d="M217.6,109.6c0.2,0,0.1,0.2-0.1,0.7c-0.2,0.4-0.6,1-1.1,1.6c-0.5,0.6-1.1,1.1-1.8,1.5c-0.6,0.4-1.3,0.6-1.9,0.6
				c-0.5,0-0.8-0.2-1.1-0.4c-0.2-0.2-0.4-0.5-0.5-0.8c-0.1-0.3-0.1-0.5-0.2-0.8c0-0.2,0-0.3-0.1-0.3c0-0.1-0.1-0.1-0.1,0
				c-0.5,1.1-1.3,1.7-2.5,1.7c-0.7,0-1.2-0.3-1.7-0.9c-0.4-0.6-0.7-1.4-0.8-2.2c-0.1-0.9,0-1.8,0.3-2.8c0.1-0.3,0.3-0.5,0.6-0.6
				c0.2-0.1,0.4-0.1,0.7,0c0.2,0.1,0.4,0.2,0.4,0.4c0,0.2,0,0.4,0,0.6c0,0.2-0.1,0.3-0.1,0.4c0,0.6,0,1.2,0,1.8
				c0.1,0.7,0.2,1.2,0.5,1.7c0.3,0.4,0.6,0.4,1,0.1c0.4-0.3,0.7-0.7,0.9-1.3c0.2-0.5,0.4-0.9,0.5-1.4c0.1-0.5,0.2-0.8,0.2-1.1
				c0-0.1,0-0.2,0-0.2c0.1-0.2,0.1-0.4,0.2-0.6c0.1-0.3,0.2-0.6,0.2-0.8c0.1-0.5,0.5-0.7,1.1-0.7c0.4,0,0.6,0.2,0.6,0.5
				c0,0.4,0,0.9,0,1.3c0,0.5,0,0.9-0.1,1.4c0,0.6-0.1,1.3-0.1,1.9c0,0.9,0.2,1.5,0.5,1.6c0.4,0.1,0.9,0,1.4-0.3
				c0.6-0.3,1.1-0.8,1.6-1.4c0-0.1,0.1-0.1,0.2-0.2c0.1-0.1,0.2-0.3,0.4-0.4c0.1-0.2,0.3-0.3,0.4-0.4
				C217.4,109.7,217.5,109.6,217.6,109.6z"/>
		</g>
	</g>
</g>
<g>
	<g>
		<g>
			<path d="M225.4,109.8c0.4-0.4,0.6-0.5,0.5-0.3c-0.1,0.2-0.3,0.6-0.7,1.1c-0.4,0.5-0.9,1.1-1.5,1.7c-0.6,0.6-1.2,1.2-1.9,1.6
				c-0.7,0.5-1.3,0.7-1.9,0.8c-0.7,0-1.3-0.2-1.8-0.7c-0.4-0.4-0.8-1-1-1.8c-0.2-0.7-0.3-1.5-0.2-2.4c0-0.9,0.1-1.9,0.1-2.8
				c0-0.5,0-0.9,0-1.4c0-0.8,0.1-1.5,0.1-2.3c0-0.2,0-0.4-0.1-0.6c-0.1-0.2-0.3-0.3-0.5-0.3c-0.3,0-0.6,0-1,0c-0.4,0-0.7,0-0.9,0
				c-0.4,0-0.6-0.1-0.7-0.3c-0.1-0.1,0-0.3,0.3-0.5c0.2-0.1,0.5-0.1,0.8-0.1c0.3,0,0.6,0,0.9,0c0.2,0,0.4,0,0.5,0
				c0.5,0,0.7-0.1,0.8-0.2c0.1-0.1,0.2-0.4,0.2-0.9c0-0.4,0.1-0.9,0.1-1.3c0-0.2,0-0.5,0-0.7c0-0.4,0.1-0.7,0.3-1
				c0.2-0.3,0.5-0.4,0.8-0.3c0.3,0.1,0.4,0.2,0.5,0.5c0,0.4,0,0.9,0,1.4c0,0.2,0,0.5,0,0.8c0,0.3,0,0.6,0,0.8c0,0.4,0,0.7,0.1,0.8
				c0.1,0.1,0.4,0.2,0.8,0.2c0.7,0,1.4,0,2.1,0c0.3,0,1.2,0,2.7-0.1c1.5,0,2.4,0.1,2.5,0.4c0.1,0.3-0.9,0.4-2.9,0.5
				c-1.2,0.1-2.2,0.1-2.9,0.1c-0.4,0-0.9,0-1.2,0c-0.6,0-1,0.1-1.1,0.3c-0.1,0.2-0.2,0.6-0.2,1.3c0,0.6,0,1.2-0.1,2
				c-0.1,1.6-0.2,3.2-0.2,4.9c0,1.1,0.2,1.9,0.6,2.2c0.4,0.3,0.9,0.4,1.4,0.2c0.6-0.2,1.2-0.6,1.9-1.1c0.7-0.6,1.4-1.1,2-1.8
				c0.1-0.2,0.3-0.4,0.5-0.5C225.3,109.9,225.4,109.9,225.4,109.8z"/>
		</g>
	</g>
</g>
<g>
	<g>
		<g>
			<path d="M233.8,109.8c0.4-0.4,0.6-0.5,0.5-0.3c-0.1,0.2-0.3,0.6-0.7,1.1c-0.4,0.5-0.9,1.1-1.5,1.7c-0.6,0.6-1.2,1.2-1.9,1.6
				c-0.7,0.5-1.3,0.7-1.9,0.8c-0.7,0-1.3-0.2-1.8-0.7c-0.4-0.4-0.8-1-1-1.8c-0.2-0.7-0.3-1.5-0.2-2.4c0-0.9,0.1-1.9,0.1-2.8
				c0-0.5,0-0.9,0-1.4c0-0.8,0.1-1.5,0.1-2.3c0-0.2,0-0.4-0.1-0.6c-0.1-0.2-0.3-0.3-0.5-0.3c-0.3,0-0.6,0-1,0c-0.4,0-0.7,0-0.9,0
				c-0.4,0-0.6-0.1-0.7-0.3c-0.1-0.1,0-0.3,0.3-0.5c0.2-0.1,0.5-0.1,0.8-0.1c0.3,0,0.6,0,0.9,0c0.2,0,0.4,0,0.5,0
				c0.5,0,0.7-0.1,0.8-0.2c0.1-0.1,0.2-0.4,0.2-0.9c0-0.4,0.1-0.9,0.1-1.3c0-0.2,0-0.5,0-0.7c0-0.4,0.1-0.7,0.3-1
				c0.2-0.3,0.5-0.4,0.8-0.3c0.3,0.1,0.4,0.2,0.5,0.5c0,0.4,0,0.9,0,1.4c0,0.2,0,0.5,0,0.8c0,0.3,0,0.6,0,0.8c0,0.4,0,0.7,0.1,0.8
				c0.1,0.1,0.4,0.2,0.8,0.2c0.7,0,1.4,0,2.1,0c0.3,0,1.2,0,2.7-0.1c1.5,0,2.4,0.1,2.5,0.4c0.1,0.3-0.9,0.4-2.9,0.5
				c-1.2,0.1-2.2,0.1-2.9,0.1c-0.4,0-0.9,0-1.2,0c-0.6,0-1,0.1-1.1,0.3c-0.1,0.2-0.2,0.6-0.2,1.3c0,0.6,0,1.2-0.1,2
				c-0.1,1.6-0.2,3.2-0.2,4.9c0,1.1,0.2,1.9,0.6,2.2c0.4,0.3,0.9,0.4,1.4,0.2c0.6-0.2,1.2-0.6,1.9-1.1c0.7-0.6,1.4-1.1,2-1.8
				c0.1-0.2,0.3-0.4,0.5-0.5C233.7,109.9,233.7,109.9,233.8,109.8z"/>
		</g>
	</g>
</g>
<g>
	<g>
		<g>
			<path d="M244.8,109.8c0.2-0.1,0.3-0.2,0.5-0.2c0.2-0.1,0.3-0.1,0.3,0c0.1,0.1,0,0.2-0.2,0.4c-0.6,0.7-1.3,1.3-2.1,1.8
				c-0.8,0.6-1.6,1-2.5,1.4c-0.7,0.3-1.4,0.5-2.1,0.7c-0.7,0.2-1.5,0.2-2.2,0.1c-0.7-0.1-1.4-0.4-2-1c-0.9-0.8-1.3-1.8-1.1-3
				c0.1-0.9,0.5-1.8,1.1-2.4c0.6-0.7,1.4-1.1,2.3-1.4c0.8-0.2,1.6-0.2,2.3-0.1c0.4,0.1,0.7,0.2,1,0.4c0.3,0.2,0.4,0.5,0.4,0.7
				c0,0.3-0.1,0.5-0.3,0.8c-0.5,0.4-1.1,0.7-1.7,0.8c-0.7,0.1-1.4,0.2-2.2,0.2c-0.4,0-0.6,0.1-0.8,0.2c-0.1,0.1-0.2,0.4-0.2,0.8
				c-0.1,1,0.2,1.7,0.9,2.3c0.5,0.4,1,0.5,1.7,0.5c0.7-0.1,1.3-0.2,2.1-0.5c0.7-0.3,1.4-0.6,2.1-1c0.7-0.4,1.3-0.8,1.9-1.1
				C244.4,110,244.6,109.9,244.8,109.8z M236.8,107.7C236.8,107.8,236.8,107.8,236.8,107.7c-0.1,0-0.1,0.1-0.2,0.1
				c0,0-0.1,0.1-0.1,0.1c0,0-0.1,0.1-0.1,0.1c0,0.1,0.1,0.1,0.4,0c0.3,0,0.5-0.1,0.9-0.1c0.3-0.1,0.6-0.1,0.8-0.3
				c0.2-0.1,0.3-0.2,0.2-0.4c0,0-0.1-0.1-0.1-0.1c-0.1,0-0.1-0.1-0.2-0.1c-0.3,0-0.6,0.1-0.8,0.2C237.2,107.4,237,107.6,236.8,107.7
				z"/>
		</g>
	</g>
</g>
<g>
	<g>
		<g>
			<path d="M252.2,109.8c0.1-0.3,0.2-0.4,0.3-0.4c0.1,0,0.1,0.1,0,0.4c0,0.2-0.1,0.5-0.1,0.8c-0.1,0.4-0.3,0.9-0.5,1.5
				c-0.2,0.6-0.5,1.1-0.8,1.5c-0.4,0.6-1,1.1-1.7,1.4c-0.7,0.3-1.3,0.4-1.8,0.2c-0.5-0.2-0.8-0.7-0.9-1.5c0-0.7,0.1-1.5,0.2-2.3
				c0-0.4,0.1-0.7,0.2-1c0-0.1,0-0.2-0.1-0.3s-0.1-0.1-0.2-0.1c-0.1,0-0.2,0-0.2,0c-0.4,0.1-0.8,0.1-1.3,0c-0.5-0.2-0.8-0.4-0.9-0.8
				c-0.1-0.4-0.1-0.8,0-1.4c0.1-0.4,0.2-0.7,0.5-1c0.3-0.2,0.6-0.3,0.9-0.3c0.5,0.1,0.7,0.2,0.7,0.6c0,0.3-0.1,0.7-0.3,1
				c-0.2,0.3-0.2,0.6-0.2,0.8c0,0.2,0.2,0.3,0.5,0.2c0.1,0,0.2,0,0.3-0.1c0.1-0.1,0.3-0.1,0.5-0.1c0.2,0,0.4-0.1,0.7,0
				c0.3,0,0.6,0.2,0.7,0.5c0.1,0.3,0.2,0.7,0.1,1.1c0,0.4-0.1,0.9-0.1,1.4c-0.1,0.6-0.1,1.1-0.1,1.5c0,0.4,0.1,0.6,0.4,0.7
				c0.3,0.1,0.8-0.2,1.4-0.9S251.5,111.4,252.2,109.8z"/>
		</g>
	</g>
</g>
<g>
	<g>
		<g>
			<path d="M264,110.9c-0.9,1.2-1.7,1.9-2.5,2.2c-0.8,0.3-1.5,0.4-2.1,0.2c-0.6-0.2-1.2-0.4-1.6-0.8c-0.5-0.4-0.8-0.7-1-1
				c-0.1-0.1-0.2-0.1-0.2-0.2c0.6,0.9,1,2,1.2,3.5c0.2,1.4,0.2,2.7,0,3.8c-0.2,0.8-0.7,1.3-1.3,1.5c-0.6,0.2-1.3,0-2-0.5
				c-0.4-0.4-0.7-0.8-1-1.3c-0.4-0.8-0.7-1.6-0.9-2.5c-0.3-1.2-0.5-2.5-0.6-3.8c-0.1-1.3-0.1-2.5-0.1-3.8c0.1-1.8,0.3-3.7,0.6-5.5
				c0.3-1.8,0.7-3.6,1.2-5.4c0.3-1.2,0.7-2.5,1.2-4c0.5-1.5,1.2-3,1.9-4.4c0.8-1.4,1.7-2.5,2.7-3.2c0.4-0.3,0.9-0.5,1.5-0.6
				c1.4-0.2,2.4-0.1,2.9,0.5c0.6,0.6,0.8,1.4,0.8,2.5c-0.1,1.1-0.3,2.4-0.8,3.8c-0.5,1.4-1.1,2.9-1.9,4.4c-0.8,1.5-1.5,3-2.3,4.4
				c-0.8,1.4-1.5,2.6-2.2,3.7c-0.7,1.1-1.2,1.8-1.6,2.3c-0.1,0.1-0.2,0.3-0.4,0.5c-0.1,0.1-0.1,0.2-0.2,0.3c1.2,1.7,2.3,2.9,3.2,3.6
				c0.9,0.6,1.7,0.9,2.4,0.9c0.7-0.1,1.3-0.3,1.8-0.8c0.5-0.4,0.9-0.8,1.2-1.3c0.3-0.4,0.6-0.6,0.7-0.6c0.2,0.1,0.3,0.3,0.1,0.6
				C264.5,110.3,264.3,110.6,264,110.9z M254.1,105.6c-0.1,0.5-0.1,0.8,0,0.9c0.1,0.1,0.3,0,0.7-0.5c0.5-0.7,1.2-1.7,2-2.9
				c0.8-1.2,1.6-2.6,2.4-4.1s1.6-3,2.3-4.5c0.7-1.5,1.2-3,1.5-4.3c0.3-1.3,0.3-2.5,0-3.4c-0.1-0.4-0.4-0.6-0.7-0.7
				c-0.3-0.1-0.7,0-1.1,0.2c-0.8,0.5-1.6,1.3-2.3,2.5c-0.7,1.2-1.3,2.6-1.9,4.2c-0.6,1.6-1,3.2-1.4,4.8c-0.4,1.6-0.7,3.2-1,4.5
				C254.4,103.8,254.2,104.8,254.1,105.6z M254.7,116c0.3,1.2,0.6,2,0.8,2.5c0.2,0.5,0.4,0.5,0.5,0.1c0.1-0.4,0.1-1.4-0.1-2.9
				c-0.1-1.2-0.3-2.4-0.6-3.8c-0.3-1.3-0.7-2.4-1.2-3.2c-0.2,0.8-0.2,1.9-0.1,3.3C254.2,113.6,254.4,114.9,254.7,116z"/>
		</g>
	</g>
</g>
<g>
	<g>
		<g>
			<path d="M272.4,110c0.1-0.3,0.3-0.5,0.4-0.5c0.2,0,0.2,0.2,0.2,0.5c-0.2,0.8-0.6,1.5-0.9,2.2c-0.4,0.7-0.8,1.4-1.5,1.9
				c-0.5,0.5-1,0.8-1.6,0.9c-0.9,0.1-1.6,0-2.2-0.3c-0.6-0.3-1-0.8-1.3-1.4c-0.3-0.6-0.6-1.3-0.8-2c-0.2-0.7-0.3-1.5-0.3-2.1
				c-0.1-1.3-0.2-3-0.3-5.2c-0.1-2.1,0-4.4,0.1-6.8c0.1-2.4,0.3-4.6,0.7-6.6c0.4-2,0.9-3.6,1.6-4.7c0.4-0.5,0.9-0.8,1.4-0.8
				c0.5,0,1,0.2,1.5,0.8c0.3,0.4,0.5,0.8,0.6,1.2c0.1,0.4,0.2,0.9,0.3,1.3c0.2,1.6,0.1,3.2-0.1,5c-0.2,1.7-0.5,3.6-0.9,5.5
				c-0.4,2-0.9,3.7-1.5,5.2c-0.6,1.5-1.1,2.7-1.4,3.6c-0.2,0.4-0.3,0.9-0.2,1.6c0.1,0.8,0.2,1.6,0.4,2.4c0.2,0.8,0.5,1.5,1,2
				c0.4,0.4,0.8,0.5,1.3,0.4c0.5-0.2,1-0.5,1.4-1c0.5-0.5,0.9-1,1.3-1.6C271.9,111,272.2,110.4,272.4,110z M266.2,98.2
				c-0.1,0.5-0.1,1.3-0.1,2.3c0,1-0.1,2.1-0.1,3.1c0,1.2-0.1,2.1-0.1,2.8c0.4-0.9,0.8-2.1,1.3-3.7c0.5-1.6,1-3.5,1.4-5.7
				c0.4-2.2,0.7-4.6,0.8-7.1c-0.1-1.5-0.3-2.5-0.5-3c-0.3-0.5-0.6-0.6-0.9-0.1c-0.3,0.4-0.6,1.4-0.8,2.8c-0.3,2.3-0.5,4.7-0.7,7
				C266.3,97.1,266.3,97.6,266.2,98.2z"/>
		</g>
	</g>
</g>
<g>
	<g>
		<g>
			<path d="M285.3,109.5c0.3,0,0.3,0.2,0.1,0.4c-0.2,0.2-0.5,0.6-0.9,1c-0.4,0.4-0.9,0.8-1.4,1.2c-0.7,0.6-1.2,1-1.6,1.5
				c-0.4,0.4-0.8,0.9-1.1,1.6s-0.4,1.3-0.4,1.9c0,0.3,0,0.7,0,1.1c0,0.9,0,1.9,0,3.1c0,1.2-0.1,2.5-0.2,3.8
				c-0.1,1.3-0.3,2.5-0.6,3.6c-0.3,1.1-0.8,2.1-1.3,2.8c-0.6,0.7-1.3,1.1-2.2,1.2c-1.7,0.1-2.9-0.7-3.5-2.1
				c-0.5-1.2-0.6-2.5-0.5-3.8c0.2-1.3,0.5-2.6,1.1-3.8c0.6-1.2,1.2-2.4,1.9-3.4c0.7-1,1.4-1.9,2-2.6c0.6-0.7,1.1-1.2,1.3-1.4
				c0.1-0.4,0.2-0.8,0.2-1.3c0-0.5,0-1,0-1.5c0-0.2,0-0.3,0-0.4c-0.3,0.5-0.7,0.9-1.1,1.1c-0.4,0.2-0.7,0.3-1.1,0.3
				c-0.4,0-0.7,0-1,0c0,0,0,0-0.1,0c-0.8-0.1-1.3-0.5-1.8-1c-0.4-0.6-0.7-1.3-0.8-2c-0.1-0.8-0.1-1.5,0.1-2.1c0.2-0.6,0.6-1,1.1-1.1
				c0.2-0.1,0.4-0.1,0.7-0.1s0.5,0,0.6,0.1c0.2,0.1,0.2,0.2,0.2,0.4c-0.2,0.6-0.2,1.3-0.3,2.1c0,0.7,0,1.4,0.2,1.9
				c0.2,0.5,0.4,0.8,0.8,0.9c0.4,0,0.9-0.3,1.6-1c0.3-0.4,0.5-0.8,0.6-1.2c0.1-0.4,0.2-0.9,0.3-1.3c0-0.2,0-0.3,0.1-0.5
				c0-0.2,0-0.3,0.1-0.5c0-0.2,0-0.4,0.1-0.7c0.1-0.4,0.3-0.6,0.6-0.7c0.3-0.1,0.6-0.1,1,0c0.2,0.1,0.3,0.3,0.3,0.5
				c0,0.4,0.1,0.8,0.1,1.2c0,1.4,0,3,0,5c0,0,0.2-0.1,0.5-0.4c0.4-0.4,0.9-0.8,1.5-1.3c0.6-0.5,1.2-1,1.8-1.4
				C284.7,109.8,285.1,109.6,285.3,109.5z M277.8,121.3c0-0.2,0-0.4,0-0.6c0-0.7,0-1.5,0.1-2.2c0,0,0-0.1,0-0.1c0-0.1,0-0.1-0.1-0.1
				c-0.1-0.1-0.2-0.1-0.2,0c-0.1,0-0.1,0.1-0.2,0.1c-0.7,0.9-1.4,2-2,3.1c-0.6,1.2-1.1,2.4-1.5,3.6c-0.4,1.2-0.5,2.5-0.4,3.7
				c0.1,0.8,0.3,1.4,0.7,2.1c0.5,0.7,1,0.9,1.3,0.8c0.4-0.2,0.7-0.7,1-1.5c0.3-0.8,0.5-1.7,0.6-2.7c0.2-1,0.3-2.1,0.4-3.1
				s0.2-1.8,0.2-2.5C277.7,121.6,277.7,121.4,277.8,121.3z"/>
		</g>
	</g>
</g>
<g>
	<g>
		<g>
			<path d="M153.9,147c-0.5,0-1.1-0.1-1.6-0.2c-0.5-0.1-1-0.3-1.3-0.5c-0.2-0.1-0.3-0.3-0.3-0.5c0-0.2,0-0.3,0-0.5
				c0.1-0.2,0.2-0.3,0.3-0.3c0.2-0.1,0.3,0,0.5,0.1c0.4,0.2,0.7,0.4,1.1,0.5c0.4,0.1,0.8,0.1,1.2,0.1c0.6,0,1.1-0.1,1.4-0.3
				c0.3-0.2,0.4-0.5,0.4-0.8c0-0.3-0.1-0.5-0.3-0.7c-0.2-0.2-0.5-0.3-1-0.4l-1.3-0.3c-1.5-0.3-2.3-1.1-2.3-2.3c0-0.5,0.1-1,0.4-1.4
				c0.3-0.4,0.7-0.7,1.2-0.9c0.5-0.2,1.1-0.3,1.8-0.3c0.5,0,0.9,0.1,1.4,0.2c0.4,0.1,0.8,0.3,1.2,0.5c0.2,0.1,0.2,0.3,0.3,0.4
				c0,0.2,0,0.3,0,0.5c-0.1,0.1-0.2,0.2-0.4,0.3c-0.2,0.1-0.3,0-0.5-0.1c-0.3-0.2-0.6-0.3-0.9-0.4c-0.3-0.1-0.6-0.1-1-0.1
				c-0.6,0-1,0.1-1.3,0.4c-0.3,0.2-0.5,0.5-0.5,0.9c0,0.3,0.1,0.5,0.3,0.7c0.2,0.2,0.5,0.3,1,0.4l1.3,0.3c0.8,0.2,1.4,0.4,1.8,0.8
				c0.4,0.4,0.6,0.9,0.6,1.5c0,0.5-0.1,1-0.4,1.4c-0.3,0.4-0.7,0.7-1.2,0.9C155.2,146.9,154.6,147,153.9,147z"/>
		</g>
	</g>
</g>
<g>
	<g>
		<g>
			<path d="M161.1,146.9c-0.3,0-0.5-0.1-0.6-0.3c-0.1-0.2-0.1-0.4,0-0.7l3.2-7.1c0.1-0.2,0.2-0.4,0.4-0.5c0.2-0.1,0.3-0.2,0.5-0.2
				s0.4,0.1,0.5,0.2c0.2,0.1,0.3,0.3,0.4,0.5l3.2,7.1c0.1,0.3,0.1,0.5,0,0.7c-0.1,0.2-0.3,0.3-0.6,0.3c-0.2,0-0.4-0.1-0.5-0.2
				c-0.1-0.1-0.2-0.3-0.3-0.5l-0.6-1.4h-4.2l-0.6,1.4c-0.1,0.2-0.2,0.4-0.3,0.5C161.5,146.9,161.4,146.9,161.1,146.9z M164.6,140
				l-1.5,3.7h3.1L164.6,140L164.6,140z"/>
		</g>
	</g>
</g>
<g>
	<g>
		<g>
			<path d="M175.9,146.9c-0.4,0-0.7-0.2-0.9-0.6l-3.2-7.1c-0.1-0.3-0.1-0.5,0-0.7c0.1-0.2,0.4-0.3,0.6-0.3c0.2,0,0.4,0.1,0.5,0.2
				c0.1,0.1,0.2,0.3,0.3,0.5l2.6,6.1l2.6-6.1c0.1-0.2,0.2-0.3,0.3-0.4c0.1-0.1,0.3-0.2,0.5-0.2c0.3,0,0.5,0.1,0.6,0.3
				c0.1,0.2,0.1,0.4,0,0.7l-3.2,7.1c-0.1,0.2-0.2,0.4-0.3,0.5C176.3,146.9,176.1,146.9,175.9,146.9z"/>
		</g>
	</g>
</g>
<g>
	<g>
		<g>
			<path d="M183.7,146.9c-0.3,0-0.5-0.1-0.6-0.3c-0.1-0.2-0.1-0.4,0-0.7l3.2-7.1c0.1-0.2,0.2-0.4,0.4-0.5c0.2-0.1,0.3-0.2,0.5-0.2
				s0.4,0.1,0.5,0.2c0.2,0.1,0.3,0.3,0.4,0.5l3.2,7.1c0.1,0.3,0.1,0.5,0,0.7c-0.1,0.2-0.3,0.3-0.6,0.3c-0.2,0-0.4-0.1-0.5-0.2
				c-0.1-0.1-0.2-0.3-0.3-0.5l-0.6-1.4h-4.2l-0.6,1.4c-0.1,0.2-0.2,0.4-0.3,0.5C184,146.9,183.9,146.9,183.7,146.9z M187.2,140
				l-1.5,3.7h3.1L187.2,140L187.2,140z"/>
		</g>
	</g>
</g>
<g>
	<g>
		<g>
			<path d="M195.8,146.9c-0.5,0-0.7-0.2-0.7-0.8V139c0-0.2,0.1-0.4,0.2-0.6c0.1-0.1,0.3-0.2,0.5-0.2c0.2,0,0.3,0,0.4,0.1
				c0.1,0.1,0.2,0.2,0.3,0.3l4.3,5.6v-5.3c0-0.5,0.2-0.8,0.7-0.8c0.5,0,0.7,0.2,0.7,0.8v7.3c0,0.2-0.1,0.4-0.2,0.5
				c-0.1,0.1-0.3,0.2-0.5,0.2s-0.3,0-0.5-0.1c-0.1-0.1-0.2-0.2-0.4-0.3l-4.3-5.6v5.3C196.5,146.7,196.2,146.9,195.8,146.9z"/>
		</g>
	</g>
</g>
<g>
	<g>
		<g>
			<path d="M207.3,146.9c-0.5,0-0.7-0.2-0.7-0.8V139c0-0.2,0.1-0.4,0.2-0.6c0.1-0.1,0.3-0.2,0.5-0.2c0.2,0,0.3,0,0.4,0.1
				c0.1,0.1,0.2,0.2,0.3,0.3l4.3,5.6v-5.3c0-0.5,0.2-0.8,0.7-0.8c0.5,0,0.7,0.2,0.7,0.8v7.3c0,0.2-0.1,0.4-0.2,0.5
				c-0.1,0.1-0.3,0.2-0.5,0.2s-0.3,0-0.5-0.1c-0.1-0.1-0.2-0.2-0.4-0.3l-4.3-5.6v5.3C208,146.7,207.7,146.9,207.3,146.9z"/>
		</g>
	</g>
</g>
<g>
	<g>
		<g>
			<path d="M218.1,146.9c-0.3,0-0.5-0.1-0.6-0.3c-0.1-0.2-0.1-0.4,0-0.7l3.2-7.1c0.1-0.2,0.2-0.4,0.4-0.5c0.2-0.1,0.3-0.2,0.5-0.2
				s0.4,0.1,0.5,0.2c0.2,0.1,0.3,0.3,0.4,0.5l3.2,7.1c0.1,0.3,0.1,0.5,0,0.7c-0.1,0.2-0.3,0.3-0.6,0.3c-0.2,0-0.4-0.1-0.5-0.2
				c-0.1-0.1-0.2-0.3-0.3-0.5l-0.6-1.4h-4.2l-0.6,1.4c-0.1,0.2-0.2,0.4-0.3,0.5C218.5,146.9,218.3,146.9,218.1,146.9z M221.6,140
				l-1.5,3.7h3.1L221.6,140L221.6,140z"/>
		</g>
	</g>
</g>
<g>
	<g>
		<g>
			<path d="M230.3,146.9c-0.5,0-0.8-0.3-0.8-0.8V139c0-0.5,0.3-0.8,0.8-0.8c0.5,0,0.8,0.3,0.8,0.8v2.9h4.4V139
				c0-0.5,0.3-0.8,0.8-0.8c0.5,0,0.8,0.3,0.8,0.8v7.2c0,0.5-0.3,0.8-0.8,0.8c-0.5,0-0.8-0.3-0.8-0.8v-3H231v3
				C231,146.7,230.8,146.9,230.3,146.9z"/>
		</g>
	</g>
</g>
</svg>
